<mxfile host="app.diagrams.net" modified="2021-11-21T14:51:03.071Z" agent="5.0 (Windows NT 10.0; Win64; x64) AppleWebKit/537.36 (KHTML, like Gecko) Chrome/96.0.4664.45 Safari/537.36" etag="5xdgDzl66hJBAB4KoEdS" version="15.5.6" type="github" pages="4">
  <diagram name="Page-1" id="97916047-d0de-89f5-080d-49f4d83e522f">
    <mxGraphModel dx="2062" dy="1154" grid="1" gridSize="10" guides="1" tooltips="1" connect="1" arrows="1" fold="1" page="1" pageScale="1.5" pageWidth="1169" pageHeight="827" background="none" math="0" shadow="0">
      <root>
        <mxCell id="0" />
        <mxCell id="1" parent="0" />
        <mxCell id="2" value="CEO" style="rounded=1;fillColor=#10739E;strokeColor=none;shadow=1;gradientColor=none;fontStyle=1;fontColor=#FFFFFF;fontSize=14;" parent="1" vertex="1">
          <mxGeometry x="672" y="205.5" width="200" height="60" as="geometry" />
        </mxCell>
        <mxCell id="3" value="Deputy Director" style="rounded=1;fillColor=#10739E;strokeColor=none;shadow=1;gradientColor=none;fontStyle=1;fontColor=#FFFFFF;fontSize=14;" parent="1" vertex="1">
          <mxGeometry x="662" y="345.5" width="220" height="60" as="geometry" />
        </mxCell>
        <mxCell id="4" value="Office of &#xa;Workplace Solutions" style="rounded=1;fillColor=#10739E;strokeColor=none;shadow=1;gradientColor=none;fontStyle=1;fontColor=#FFFFFF;fontSize=14;" parent="1" vertex="1">
          <mxGeometry x="302" y="455.5" width="200" height="60" as="geometry" />
        </mxCell>
        <mxCell id="5" value="Office of Public Relations" style="rounded=1;fillColor=#10739E;strokeColor=none;shadow=1;gradientColor=none;fontStyle=1;fontColor=#FFFFFF;fontSize=14;" parent="1" vertex="1">
          <mxGeometry x="542" y="455.5" width="200" height="60" as="geometry" />
        </mxCell>
        <mxCell id="6" value="Counsel Division" style="rounded=1;fillColor=#10739E;strokeColor=none;shadow=1;gradientColor=none;fontStyle=1;fontColor=#FFFFFF;fontSize=14;" parent="1" vertex="1">
          <mxGeometry x="872" y="455.5" width="200" height="60" as="geometry" />
        </mxCell>
        <mxCell id="7" value="Cooperation" style="rounded=1;fillColor=#10739E;strokeColor=none;shadow=1;gradientColor=none;fontStyle=1;fontColor=#FFFFFF;fontSize=14;" parent="1" vertex="1">
          <mxGeometry x="1272" y="455.5" width="200" height="60" as="geometry" />
        </mxCell>
        <mxCell id="8" value="Analysis &#xa;Division" style="rounded=1;fillColor=#10739E;strokeColor=none;shadow=1;gradientColor=none;fontStyle=1;fontColor=#FFFFFF;fontSize=14;" parent="1" vertex="1">
          <mxGeometry x="282" y="625.5" width="200" height="60" as="geometry" />
        </mxCell>
        <mxCell id="9" value="Office of Global Support" style="rounded=1;fillColor=#10739E;strokeColor=none;shadow=1;gradientColor=none;fontStyle=1;fontColor=#FFFFFF;fontSize=14;" parent="1" vertex="1">
          <mxGeometry x="282" y="705.5" width="200" height="60" as="geometry" />
        </mxCell>
        <mxCell id="10" value="Office of &#xa;Backtrack Analysis" style="rounded=1;fillColor=#10739E;strokeColor=none;shadow=1;gradientColor=none;fontStyle=1;fontColor=#FFFFFF;fontSize=14;" parent="1" vertex="1">
          <mxGeometry x="282" y="795.5" width="200" height="60" as="geometry" />
        </mxCell>
        <mxCell id="11" value="Department of &#xa;Heuristic Support" style="rounded=1;fillColor=#10739E;strokeColor=none;shadow=1;gradientColor=none;fontStyle=1;fontColor=#FFFFFF;fontSize=14;" parent="1" vertex="1">
          <mxGeometry x="282" y="885.5" width="200" height="60" as="geometry" />
        </mxCell>
        <mxCell id="12" value="Office of Intelligence &#xa;Support" style="rounded=1;fillColor=#10739E;strokeColor=none;shadow=1;gradientColor=none;fontStyle=1;fontColor=#FFFFFF;fontSize=14;" parent="1" vertex="1">
          <mxGeometry x="282" y="975.5" width="200" height="60" as="geometry" />
        </mxCell>
        <mxCell id="13" value="IT&#xa;Division" style="rounded=1;fillColor=#10739E;strokeColor=none;shadow=1;gradientColor=none;fontStyle=1;fontColor=#FFFFFF;fontSize=14;" parent="1" vertex="1">
          <mxGeometry x="552" y="615.5" width="200" height="60" as="geometry" />
        </mxCell>
        <mxCell id="14" value="Database Administration" style="rounded=1;fillColor=#10739E;strokeColor=none;shadow=1;gradientColor=none;fontStyle=1;fontColor=#FFFFFF;fontSize=14;" parent="1" vertex="1">
          <mxGeometry x="552" y="705.5" width="200" height="60" as="geometry" />
        </mxCell>
        <mxCell id="15" value="Office of Technology &#xa;Research" style="rounded=1;fillColor=#10739E;strokeColor=none;shadow=1;gradientColor=none;fontStyle=1;fontColor=#FFFFFF;fontSize=14;" parent="1" vertex="1">
          <mxGeometry x="552" y="795.5" width="200" height="60" as="geometry" />
        </mxCell>
        <mxCell id="16" value="Office of&#xa;Data Services" style="rounded=1;fillColor=#10739E;strokeColor=none;shadow=1;gradientColor=none;fontStyle=1;fontColor=#FFFFFF;fontSize=14;" parent="1" vertex="1">
          <mxGeometry x="552" y="885.5" width="200" height="60" as="geometry" />
        </mxCell>
        <mxCell id="18" value="Management Programs &#xa;Division" style="rounded=1;fillColor=#10739E;strokeColor=none;shadow=1;gradientColor=none;fontStyle=1;fontColor=#FFFFFF;fontSize=14;" parent="1" vertex="1">
          <mxGeometry x="842" y="615.5" width="200" height="60" as="geometry" />
        </mxCell>
        <mxCell id="19" value="Office of Financial &#xa;Management" style="rounded=1;fillColor=#10739E;strokeColor=none;shadow=1;gradientColor=none;fontStyle=1;fontColor=#FFFFFF;fontSize=14;" parent="1" vertex="1">
          <mxGeometry x="842" y="705.5" width="200" height="60" as="geometry" />
        </mxCell>
        <mxCell id="20" value="Office of Human Resources" style="rounded=1;fillColor=#10739E;strokeColor=none;shadow=1;gradientColor=none;fontStyle=1;fontColor=#FFFFFF;fontSize=14;" parent="1" vertex="1">
          <mxGeometry x="842" y="795.5" width="200" height="60" as="geometry" />
        </mxCell>
        <mxCell id="21" value="Office of Management " style="rounded=1;fillColor=#10739E;strokeColor=none;shadow=1;gradientColor=none;fontStyle=1;fontColor=#FFFFFF;fontSize=14;" parent="1" vertex="1">
          <mxGeometry x="842" y="885.5" width="200" height="60" as="geometry" />
        </mxCell>
        <mxCell id="22" value="Office of Training Services" style="rounded=1;fillColor=#10739E;strokeColor=none;shadow=1;gradientColor=none;fontStyle=1;fontColor=#FFFFFF;fontSize=14;" parent="1" vertex="1">
          <mxGeometry x="842" y="975.5" width="200" height="60" as="geometry" />
        </mxCell>
        <mxCell id="23" value="Regulatory &#xa;and Enforcement Division" style="rounded=1;fillColor=#10739E;strokeColor=none;shadow=1;gradientColor=none;fontStyle=1;fontColor=#FFFFFF;fontSize=14;" parent="1" vertex="1">
          <mxGeometry x="1092" y="615.5" width="200" height="60" as="geometry" />
        </mxCell>
        <mxCell id="24" value="Office of Regulatory Policy" style="rounded=1;fillColor=#10739E;strokeColor=none;shadow=1;gradientColor=none;fontStyle=1;fontColor=#FFFFFF;fontSize=14;" parent="1" vertex="1">
          <mxGeometry x="1092" y="705.5" width="200" height="60" as="geometry" />
        </mxCell>
        <mxCell id="25" value="Office Compliance" style="rounded=1;fillColor=#10739E;strokeColor=none;shadow=1;gradientColor=none;fontStyle=1;fontColor=#FFFFFF;fontSize=14;" parent="1" vertex="1">
          <mxGeometry x="1092" y="795.5" width="200" height="60" as="geometry" />
        </mxCell>
        <mxCell id="26" value="Office of &#xa;Enforcement" style="rounded=1;fillColor=#10739E;strokeColor=none;shadow=1;gradientColor=none;fontStyle=1;fontColor=#FFFFFF;fontSize=14;" parent="1" vertex="1">
          <mxGeometry x="1092" y="885.5" width="200" height="60" as="geometry" />
        </mxCell>
        <mxCell id="27" value="Office of&#xa; Regulatory Support" style="rounded=1;fillColor=#10739E;strokeColor=none;shadow=1;gradientColor=none;fontStyle=1;fontColor=#FFFFFF;fontSize=14;" parent="1" vertex="1">
          <mxGeometry x="1092" y="975.5" width="200" height="60" as="geometry" />
        </mxCell>
        <mxCell id="29" value="" style="edgeStyle=elbowEdgeStyle;elbow=vertical;strokeWidth=4;endArrow=block;endFill=1;fontStyle=1;strokeColor=#23445D;" parent="1" source="2" target="3" edge="1">
          <mxGeometry x="22" y="165.5" width="100" height="100" as="geometry">
            <mxPoint x="22" y="265.5" as="sourcePoint" />
            <mxPoint x="122" y="165.5" as="targetPoint" />
          </mxGeometry>
        </mxCell>
        <mxCell id="30" value="" style="edgeStyle=elbowEdgeStyle;elbow=vertical;strokeWidth=4;endArrow=block;endFill=1;fontStyle=1;strokeColor=#23445D;" parent="1" source="3" target="5" edge="1">
          <mxGeometry x="22" y="165.5" width="100" height="100" as="geometry">
            <mxPoint x="22" y="265.5" as="sourcePoint" />
            <mxPoint x="122" y="165.5" as="targetPoint" />
          </mxGeometry>
        </mxCell>
        <mxCell id="31" value="" style="edgeStyle=elbowEdgeStyle;elbow=vertical;strokeWidth=4;endArrow=block;endFill=1;fontStyle=1;strokeColor=#23445D;" parent="1" source="3" target="4" edge="1">
          <mxGeometry x="22" y="165.5" width="100" height="100" as="geometry">
            <mxPoint x="22" y="265.5" as="sourcePoint" />
            <mxPoint x="122" y="165.5" as="targetPoint" />
          </mxGeometry>
        </mxCell>
        <mxCell id="32" value="" style="edgeStyle=elbowEdgeStyle;elbow=vertical;strokeWidth=4;endArrow=block;endFill=1;fontStyle=1;strokeColor=#23445D;" parent="1" source="3" target="6" edge="1">
          <mxGeometry x="22" y="165.5" width="100" height="100" as="geometry">
            <mxPoint x="22" y="265.5" as="sourcePoint" />
            <mxPoint x="122" y="165.5" as="targetPoint" />
          </mxGeometry>
        </mxCell>
        <mxCell id="33" value="" style="edgeStyle=elbowEdgeStyle;elbow=vertical;strokeWidth=4;endArrow=block;endFill=1;fontStyle=1;dashed=1;strokeColor=#23445D;" parent="1" source="2" target="7" edge="1">
          <mxGeometry x="22" y="165.5" width="100" height="100" as="geometry">
            <mxPoint x="22" y="265.5" as="sourcePoint" />
            <mxPoint x="122" y="165.5" as="targetPoint" />
            <Array as="points">
              <mxPoint x="1062" y="295.5" />
            </Array>
          </mxGeometry>
        </mxCell>
        <mxCell id="34" value="" style="edgeStyle=elbowEdgeStyle;elbow=vertical;strokeWidth=4;endArrow=block;endFill=1;fontStyle=1;strokeColor=#23445D;" parent="1" source="3" target="8" edge="1">
          <mxGeometry x="22" y="165.5" width="100" height="100" as="geometry">
            <mxPoint x="22" y="265.5" as="sourcePoint" />
            <mxPoint x="122" y="165.5" as="targetPoint" />
            <Array as="points">
              <mxPoint x="552" y="555.5" />
            </Array>
          </mxGeometry>
        </mxCell>
        <mxCell id="37" value="" style="edgeStyle=elbowEdgeStyle;elbow=vertical;strokeWidth=4;endArrow=block;endFill=1;fontStyle=1;strokeColor=#23445D;" parent="1" source="3" target="23" edge="1">
          <mxGeometry x="22" y="165.5" width="100" height="100" as="geometry">
            <mxPoint x="22" y="265.5" as="sourcePoint" />
            <mxPoint x="122" y="165.5" as="targetPoint" />
            <Array as="points">
              <mxPoint x="972" y="555.5" />
            </Array>
          </mxGeometry>
        </mxCell>
        <mxCell id="38" value="" style="edgeStyle=elbowEdgeStyle;elbow=vertical;strokeWidth=4;endArrow=block;endFill=1;fontStyle=1;strokeColor=#23445D;" parent="1" source="8" target="9" edge="1">
          <mxGeometry x="62" y="165.5" width="100" height="100" as="geometry">
            <mxPoint x="62" y="265.5" as="sourcePoint" />
            <mxPoint x="162" y="165.5" as="targetPoint" />
          </mxGeometry>
        </mxCell>
        <mxCell id="39" value="" style="edgeStyle=elbowEdgeStyle;elbow=vertical;strokeWidth=4;endArrow=block;endFill=1;fontStyle=1;strokeColor=#23445D;" parent="1" source="9" target="10" edge="1">
          <mxGeometry x="62" y="175.5" width="100" height="100" as="geometry">
            <mxPoint x="62" y="275.5" as="sourcePoint" />
            <mxPoint x="162" y="175.5" as="targetPoint" />
          </mxGeometry>
        </mxCell>
        <mxCell id="40" value="" style="edgeStyle=elbowEdgeStyle;elbow=vertical;strokeWidth=4;endArrow=block;endFill=1;fontStyle=1;strokeColor=#23445D;" parent="1" source="10" target="11" edge="1">
          <mxGeometry x="62" y="185.5" width="100" height="100" as="geometry">
            <mxPoint x="62" y="285.5" as="sourcePoint" />
            <mxPoint x="162" y="185.5" as="targetPoint" />
          </mxGeometry>
        </mxCell>
        <mxCell id="41" value="" style="edgeStyle=elbowEdgeStyle;elbow=vertical;strokeWidth=4;endArrow=block;endFill=1;fontStyle=1;strokeColor=#23445D;" parent="1" source="11" target="12" edge="1">
          <mxGeometry x="62" y="195.5" width="100" height="100" as="geometry">
            <mxPoint x="62" y="295.5" as="sourcePoint" />
            <mxPoint x="162" y="195.5" as="targetPoint" />
          </mxGeometry>
        </mxCell>
        <mxCell id="42" value="" style="edgeStyle=elbowEdgeStyle;elbow=vertical;strokeWidth=4;endArrow=block;endFill=1;fontStyle=1;strokeColor=#23445D;" parent="1" source="13" target="14" edge="1">
          <mxGeometry x="62" y="165.5" width="100" height="100" as="geometry">
            <mxPoint x="62" y="265.5" as="sourcePoint" />
            <mxPoint x="162" y="165.5" as="targetPoint" />
          </mxGeometry>
        </mxCell>
        <mxCell id="43" value="" style="edgeStyle=elbowEdgeStyle;elbow=vertical;strokeWidth=4;endArrow=block;endFill=1;fontStyle=1;strokeColor=#23445D;" parent="1" source="14" target="15" edge="1">
          <mxGeometry x="62" y="175.5" width="100" height="100" as="geometry">
            <mxPoint x="62" y="275.5" as="sourcePoint" />
            <mxPoint x="162" y="175.5" as="targetPoint" />
          </mxGeometry>
        </mxCell>
        <mxCell id="44" value="" style="edgeStyle=elbowEdgeStyle;elbow=vertical;strokeWidth=4;endArrow=block;endFill=1;fontStyle=1;strokeColor=#23445D;" parent="1" source="15" target="16" edge="1">
          <mxGeometry x="62" y="185.5" width="100" height="100" as="geometry">
            <mxPoint x="62" y="285.5" as="sourcePoint" />
            <mxPoint x="162" y="185.5" as="targetPoint" />
          </mxGeometry>
        </mxCell>
        <mxCell id="46" value="" style="edgeStyle=elbowEdgeStyle;elbow=vertical;strokeWidth=4;endArrow=block;endFill=1;fontStyle=1;strokeColor=#23445D;" parent="1" source="18" target="19" edge="1">
          <mxGeometry x="72" y="165.5" width="100" height="100" as="geometry">
            <mxPoint x="72" y="265.5" as="sourcePoint" />
            <mxPoint x="172" y="165.5" as="targetPoint" />
          </mxGeometry>
        </mxCell>
        <mxCell id="47" value="" style="edgeStyle=elbowEdgeStyle;elbow=vertical;strokeWidth=4;endArrow=block;endFill=1;fontStyle=1;strokeColor=#23445D;" parent="1" source="19" target="20" edge="1">
          <mxGeometry x="72" y="175.5" width="100" height="100" as="geometry">
            <mxPoint x="72" y="275.5" as="sourcePoint" />
            <mxPoint x="172" y="175.5" as="targetPoint" />
          </mxGeometry>
        </mxCell>
        <mxCell id="48" value="" style="edgeStyle=elbowEdgeStyle;elbow=vertical;strokeWidth=4;endArrow=block;endFill=1;fontStyle=1;strokeColor=#23445D;" parent="1" source="20" target="21" edge="1">
          <mxGeometry x="72" y="185.5" width="100" height="100" as="geometry">
            <mxPoint x="72" y="285.5" as="sourcePoint" />
            <mxPoint x="172" y="185.5" as="targetPoint" />
          </mxGeometry>
        </mxCell>
        <mxCell id="49" value="" style="edgeStyle=elbowEdgeStyle;elbow=vertical;strokeWidth=4;endArrow=block;endFill=1;fontStyle=1;strokeColor=#23445D;" parent="1" source="21" target="22" edge="1">
          <mxGeometry x="72" y="195.5" width="100" height="100" as="geometry">
            <mxPoint x="72" y="295.5" as="sourcePoint" />
            <mxPoint x="172" y="195.5" as="targetPoint" />
          </mxGeometry>
        </mxCell>
        <mxCell id="50" value="" style="edgeStyle=elbowEdgeStyle;elbow=vertical;strokeWidth=4;endArrow=block;endFill=1;fontStyle=1;strokeColor=#23445D;" parent="1" source="23" target="24" edge="1">
          <mxGeometry x="72" y="165.5" width="100" height="100" as="geometry">
            <mxPoint x="72" y="265.5" as="sourcePoint" />
            <mxPoint x="172" y="165.5" as="targetPoint" />
          </mxGeometry>
        </mxCell>
        <mxCell id="51" value="" style="edgeStyle=elbowEdgeStyle;elbow=vertical;strokeWidth=4;endArrow=block;endFill=1;fontStyle=1;strokeColor=#23445D;" parent="1" source="24" target="25" edge="1">
          <mxGeometry x="72" y="175.5" width="100" height="100" as="geometry">
            <mxPoint x="72" y="275.5" as="sourcePoint" />
            <mxPoint x="172" y="175.5" as="targetPoint" />
          </mxGeometry>
        </mxCell>
        <mxCell id="52" value="" style="edgeStyle=elbowEdgeStyle;elbow=vertical;strokeWidth=4;endArrow=block;endFill=1;fontStyle=1;strokeColor=#23445D;" parent="1" source="25" target="26" edge="1">
          <mxGeometry x="72" y="185.5" width="100" height="100" as="geometry">
            <mxPoint x="72" y="285.5" as="sourcePoint" />
            <mxPoint x="172" y="185.5" as="targetPoint" />
          </mxGeometry>
        </mxCell>
        <mxCell id="53" value="" style="edgeStyle=elbowEdgeStyle;elbow=vertical;strokeWidth=4;endArrow=block;endFill=1;fontStyle=1;strokeColor=#23445D;" parent="1" source="26" target="27" edge="1">
          <mxGeometry x="72" y="195.5" width="100" height="100" as="geometry">
            <mxPoint x="72" y="295.5" as="sourcePoint" />
            <mxPoint x="172" y="195.5" as="targetPoint" />
          </mxGeometry>
        </mxCell>
        <mxCell id="54" value="" style="edgeStyle=elbowEdgeStyle;elbow=vertical;strokeWidth=4;endArrow=block;endFill=1;fontStyle=1;strokeColor=#23445D;" parent="1" source="3" target="13" edge="1">
          <mxGeometry x="22" y="165.5" width="100" height="100" as="geometry">
            <mxPoint x="22" y="265.5" as="sourcePoint" />
            <mxPoint x="122" y="165.5" as="targetPoint" />
            <Array as="points">
              <mxPoint x="652" y="555.5" />
            </Array>
          </mxGeometry>
        </mxCell>
        <mxCell id="55" value="" style="edgeStyle=elbowEdgeStyle;elbow=vertical;strokeWidth=4;endArrow=block;endFill=1;fontStyle=1;strokeColor=#23445D;" parent="1" source="3" target="18" edge="1">
          <mxGeometry x="22" y="165.5" width="100" height="100" as="geometry">
            <mxPoint x="22" y="265.5" as="sourcePoint" />
            <mxPoint x="122" y="165.5" as="targetPoint" />
            <Array as="points">
              <mxPoint x="942" y="555.5" />
            </Array>
          </mxGeometry>
        </mxCell>
      </root>
    </mxGraphModel>
  </diagram>
  <diagram name="Proposed PlateReader Workflow Overview" id="IOYe_sU2K3DlwZyCSLme">
    <mxGraphModel dx="2062" dy="1154" grid="1" gridSize="10" guides="1" tooltips="1" connect="1" arrows="1" fold="1" page="0" pageScale="1" pageWidth="850" pageHeight="1100" background="#ffffff" math="0" shadow="0">
      <root>
        <mxCell id="XHf5zvwz7XtpQKsTTxTS-0" />
        <mxCell id="XHf5zvwz7XtpQKsTTxTS-1" parent="XHf5zvwz7XtpQKsTTxTS-0" />
        <mxCell id="kUZ-IrU6opu8I8vrN3aO-91" value="Python SSH Vaxcom Replacement" style="rounded=0;whiteSpace=wrap;html=1;" parent="XHf5zvwz7XtpQKsTTxTS-1" vertex="1">
          <mxGeometry x="2053.75" y="40" width="120" height="40" as="geometry" />
        </mxCell>
        <mxCell id="kUZ-IrU6opu8I8vrN3aO-108" value="Download" style="text;html=1;strokeColor=none;fillColor=none;align=center;verticalAlign=middle;whiteSpace=wrap;rounded=0;fontSize=12;" parent="XHf5zvwz7XtpQKsTTxTS-1" vertex="1">
          <mxGeometry x="2093.75" y="90" width="40" height="20" as="geometry" />
        </mxCell>
        <mxCell id="kUZ-IrU6opu8I8vrN3aO-106" value="&lt;font style=&quot;font-size: 12px&quot;&gt;Pending List&lt;br&gt;&lt;/font&gt;" style="rounded=0;whiteSpace=wrap;html=1;fontSize=20;" parent="XHf5zvwz7XtpQKsTTxTS-1" vertex="1">
          <mxGeometry x="2053.75" y="120" width="120" height="50" as="geometry" />
        </mxCell>
        <mxCell id="kUZ-IrU6opu8I8vrN3aO-89" value="Build Plate&lt;br&gt;&lt;br&gt;-User uses a template with preconfigured standards and controls&lt;br&gt;-User can place pending accessions in any order&lt;br&gt;-User can replicate the sample or tube to have multiple entries&lt;br&gt;-User can change the dilution of each replicate sample&lt;br&gt;-User can enter manual Dummy accession for Instrument Calibration" style="rounded=0;whiteSpace=wrap;html=1;" parent="XHf5zvwz7XtpQKsTTxTS-1" vertex="1">
          <mxGeometry x="1923.75" y="190" width="380" height="100" as="geometry" />
        </mxCell>
        <mxCell id="kUZ-IrU6opu8I8vrN3aO-110" value="Create Build Plate File&lt;br&gt;&lt;br&gt;-Create an .txt, .xlsx, or etc file based on the build file for the instrument software to import" style="rounded=0;whiteSpace=wrap;html=1;" parent="XHf5zvwz7XtpQKsTTxTS-1" vertex="1">
          <mxGeometry x="1915" y="315" width="397.5" height="60" as="geometry" />
        </mxCell>
        <mxCell id="kUZ-IrU6opu8I8vrN3aO-93" value="Instrument" style="shape=cube;whiteSpace=wrap;html=1;boundedLbl=1;backgroundOutline=1;darkOpacity=0.05;darkOpacity2=0.1;" parent="XHf5zvwz7XtpQKsTTxTS-1" vertex="1">
          <mxGeometry x="2048.75" y="400" width="130" height="90" as="geometry" />
        </mxCell>
        <mxCell id="kUZ-IrU6opu8I8vrN3aO-112" value="Parse the file and extract raw results" style="rounded=0;whiteSpace=wrap;html=1;fontSize=12;" parent="XHf5zvwz7XtpQKsTTxTS-1" vertex="1">
          <mxGeometry x="2053.75" y="510" width="120" height="60" as="geometry" />
        </mxCell>
        <mxCell id="kUZ-IrU6opu8I8vrN3aO-95" value="Calculate Raw Result" style="rounded=0;whiteSpace=wrap;html=1;" parent="XHf5zvwz7XtpQKsTTxTS-1" vertex="1">
          <mxGeometry x="2043.75" y="590" width="140" height="60" as="geometry" />
        </mxCell>
        <mxCell id="kUZ-IrU6opu8I8vrN3aO-97" value="Apply Reporting Rules and Canned comments" style="rounded=0;whiteSpace=wrap;html=1;" parent="XHf5zvwz7XtpQKsTTxTS-1" vertex="1">
          <mxGeometry x="2053.75" y="670" width="120" height="60" as="geometry" />
        </mxCell>
        <mxCell id="kUZ-IrU6opu8I8vrN3aO-101" value="View Plate Results&lt;br&gt;&lt;br&gt;-User can change the phase to Accept/Repeat/Hold/Cancel one or all samples, one or all hostanalyte codes&lt;br&gt;-User can add additional canned comments&lt;br&gt;-User can add Text Comments&lt;br&gt;-User can manually modify the result" style="rounded=0;whiteSpace=wrap;html=1;" parent="XHf5zvwz7XtpQKsTTxTS-1" vertex="1">
          <mxGeometry x="1918.75" y="750" width="390" height="120" as="geometry" />
        </mxCell>
        <mxCell id="kUZ-IrU6opu8I8vrN3aO-103" value="Finalize Plate Results&lt;br&gt;&lt;br&gt;-User can change the phase to Accept/Repeat/Hold/Cancel one or all samples, one or all hostanalyte codes&lt;br&gt;-User can add additional canned comments&lt;br&gt;-User can add Text Comments&lt;br&gt;-User can manually modify the result" style="rounded=0;whiteSpace=wrap;html=1;" parent="XHf5zvwz7XtpQKsTTxTS-1" vertex="1">
          <mxGeometry x="1918.75" y="890" width="390" height="120" as="geometry" />
        </mxCell>
        <mxCell id="kUZ-IrU6opu8I8vrN3aO-107" value="Upload" style="text;html=1;strokeColor=none;fillColor=none;align=center;verticalAlign=middle;whiteSpace=wrap;rounded=0;fontSize=12;" parent="XHf5zvwz7XtpQKsTTxTS-1" vertex="1">
          <mxGeometry x="2093.75" y="1020" width="40" height="20" as="geometry" />
        </mxCell>
        <mxCell id="kUZ-IrU6opu8I8vrN3aO-104" value="Python SSH Vaxcom Replacement" style="rounded=0;whiteSpace=wrap;html=1;" parent="XHf5zvwz7XtpQKsTTxTS-1" vertex="1">
          <mxGeometry x="2053.75" y="1050" width="120" height="40" as="geometry" />
        </mxCell>
        <mxCell id="kUZ-IrU6opu8I8vrN3aO-58" style="edgeStyle=orthogonalEdgeStyle;rounded=0;orthogonalLoop=1;jettySize=auto;html=1;entryX=0.5;entryY=0;entryDx=0;entryDy=0;fontSize=12;" parent="XHf5zvwz7XtpQKsTTxTS-1" source="XHf5zvwz7XtpQKsTTxTS-2" target="kUZ-IrU6opu8I8vrN3aO-57" edge="1">
          <mxGeometry relative="1" as="geometry" />
        </mxCell>
        <mxCell id="XHf5zvwz7XtpQKsTTxTS-2" value="Build Plate&lt;br&gt;&lt;br&gt;-User uses a template with preconfigured standards and controls&lt;br&gt;-User can place pending accessions in any order&lt;br&gt;-User can replicate the sample or tube to have multiple entries&lt;br&gt;-User can change the dilution of each replicate sample&lt;br&gt;-User can enter manual Dummy accession for Instrument Calibration" style="rounded=0;whiteSpace=wrap;html=1;" parent="XHf5zvwz7XtpQKsTTxTS-1" vertex="1">
          <mxGeometry x="55" y="210" width="380" height="100" as="geometry" />
        </mxCell>
        <mxCell id="kUZ-IrU6opu8I8vrN3aO-56" style="edgeStyle=orthogonalEdgeStyle;rounded=0;orthogonalLoop=1;jettySize=auto;html=1;entryX=0.5;entryY=0;entryDx=0;entryDy=0;fontSize=12;" parent="XHf5zvwz7XtpQKsTTxTS-1" source="XHf5zvwz7XtpQKsTTxTS-3" target="kUZ-IrU6opu8I8vrN3aO-46" edge="1">
          <mxGeometry relative="1" as="geometry" />
        </mxCell>
        <mxCell id="XHf5zvwz7XtpQKsTTxTS-3" value="Vaxcom" style="rounded=0;whiteSpace=wrap;html=1;" parent="XHf5zvwz7XtpQKsTTxTS-1" vertex="1">
          <mxGeometry x="185" y="40" width="120" height="60" as="geometry" />
        </mxCell>
        <mxCell id="XHf5zvwz7XtpQKsTTxTS-5" value="Current Plate Reader Work Flow as of 3/16/20" style="text;html=1;align=center;verticalAlign=middle;resizable=0;points=[];autosize=1;fontSize=20;" parent="XHf5zvwz7XtpQKsTTxTS-1" vertex="1">
          <mxGeometry x="25" y="10" width="430" height="30" as="geometry" />
        </mxCell>
        <mxCell id="kUZ-IrU6opu8I8vrN3aO-61" style="edgeStyle=orthogonalEdgeStyle;rounded=0;orthogonalLoop=1;jettySize=auto;html=1;entryX=0.5;entryY=0;entryDx=0;entryDy=0;fontSize=12;" parent="XHf5zvwz7XtpQKsTTxTS-1" source="XHf5zvwz7XtpQKsTTxTS-6" target="kUZ-IrU6opu8I8vrN3aO-60" edge="1">
          <mxGeometry relative="1" as="geometry" />
        </mxCell>
        <mxCell id="XHf5zvwz7XtpQKsTTxTS-6" value="BioTek&lt;br&gt;&lt;br&gt;Instrument" style="shape=cube;whiteSpace=wrap;html=1;boundedLbl=1;backgroundOutline=1;darkOpacity=0.05;darkOpacity2=0.1;" parent="XHf5zvwz7XtpQKsTTxTS-1" vertex="1">
          <mxGeometry x="180" y="420" width="130" height="90" as="geometry" />
        </mxCell>
        <mxCell id="kUZ-IrU6opu8I8vrN3aO-19" style="edgeStyle=orthogonalEdgeStyle;rounded=0;orthogonalLoop=1;jettySize=auto;html=1;fontSize=20;" parent="XHf5zvwz7XtpQKsTTxTS-1" source="XHf5zvwz7XtpQKsTTxTS-10" target="XHf5zvwz7XtpQKsTTxTS-20" edge="1">
          <mxGeometry relative="1" as="geometry" />
        </mxCell>
        <mxCell id="kUZ-IrU6opu8I8vrN3aO-50" style="edgeStyle=orthogonalEdgeStyle;rounded=0;orthogonalLoop=1;jettySize=auto;html=1;fontSize=20;entryX=1;entryY=0.5;entryDx=0;entryDy=0;exitX=1;exitY=0.5;exitDx=0;exitDy=0;" parent="XHf5zvwz7XtpQKsTTxTS-1" source="XHf5zvwz7XtpQKsTTxTS-10" target="kUZ-IrU6opu8I8vrN3aO-46" edge="1">
          <mxGeometry relative="1" as="geometry">
            <mxPoint x="495" y="160" as="targetPoint" />
            <mxPoint x="465" y="860" as="sourcePoint" />
            <Array as="points">
              <mxPoint x="465" y="670" />
              <mxPoint x="465" y="165" />
            </Array>
          </mxGeometry>
        </mxCell>
        <mxCell id="kUZ-IrU6opu8I8vrN3aO-51" value="&lt;font style=&quot;font-size: 12px&quot;&gt;Repeat and Vaxcom Upload&lt;/font&gt;" style="text;html=1;align=center;verticalAlign=middle;resizable=0;points=[];labelBackgroundColor=#ffffff;fontSize=20;" parent="kUZ-IrU6opu8I8vrN3aO-50" vertex="1" connectable="0">
          <mxGeometry x="-0.2216" y="-1" relative="1" as="geometry">
            <mxPoint as="offset" />
          </mxGeometry>
        </mxCell>
        <mxCell id="XHf5zvwz7XtpQKsTTxTS-10" value="View Plate Results/Calculate Raw Result/Apply Reporting Rules on View&lt;br&gt;&lt;br&gt;-User can change the phase to Accept/Repeat/Hold/Cancel one or all samples, one or all hostanalyte codes&lt;br&gt;-User can add additional canned comments&lt;br&gt;-User can add Text Comments&lt;br&gt;-User can manually modify the result" style="rounded=0;whiteSpace=wrap;html=1;" parent="XHf5zvwz7XtpQKsTTxTS-1" vertex="1">
          <mxGeometry x="50" y="610" width="390" height="120" as="geometry" />
        </mxCell>
        <mxCell id="XHf5zvwz7XtpQKsTTxTS-11" value="Current Gamma Counter Work Flow&amp;nbsp;as of 3/16/20" style="text;html=1;align=center;verticalAlign=middle;resizable=0;points=[];autosize=1;fontSize=20;" parent="XHf5zvwz7XtpQKsTTxTS-1" vertex="1">
          <mxGeometry x="590" y="10" width="460" height="30" as="geometry" />
        </mxCell>
        <mxCell id="kUZ-IrU6opu8I8vrN3aO-20" style="edgeStyle=orthogonalEdgeStyle;rounded=0;orthogonalLoop=1;jettySize=auto;html=1;fontSize=20;" parent="XHf5zvwz7XtpQKsTTxTS-1" source="XHf5zvwz7XtpQKsTTxTS-20" target="kUZ-IrU6opu8I8vrN3aO-0" edge="1">
          <mxGeometry relative="1" as="geometry">
            <Array as="points">
              <mxPoint x="245" y="910" />
              <mxPoint x="245" y="910" />
            </Array>
          </mxGeometry>
        </mxCell>
        <mxCell id="PoXGvX9ns4Eya7C4yh-R-27" style="edgeStyle=orthogonalEdgeStyle;rounded=0;orthogonalLoop=1;jettySize=auto;html=1;entryX=1;entryY=0.5;entryDx=0;entryDy=0;fontSize=12;" parent="XHf5zvwz7XtpQKsTTxTS-1" source="XHf5zvwz7XtpQKsTTxTS-20" target="kUZ-IrU6opu8I8vrN3aO-46" edge="1">
          <mxGeometry relative="1" as="geometry">
            <Array as="points">
              <mxPoint x="470" y="810" />
              <mxPoint x="470" y="165" />
            </Array>
          </mxGeometry>
        </mxCell>
        <mxCell id="XHf5zvwz7XtpQKsTTxTS-20" value="Finalize Plate Results&lt;br&gt;&lt;br&gt;-User can change the phase to Accept/Repeat/Hold/Cancel one or all samples, one or all hostanalyte codes&lt;br&gt;-User can add additional canned comments&lt;br&gt;-User can add Text Comments&lt;br&gt;-User can manually modify the result" style="rounded=0;whiteSpace=wrap;html=1;" parent="XHf5zvwz7XtpQKsTTxTS-1" vertex="1">
          <mxGeometry x="50" y="750" width="390" height="120" as="geometry" />
        </mxCell>
        <mxCell id="kUZ-IrU6opu8I8vrN3aO-0" value="Vaxcom" style="rounded=0;whiteSpace=wrap;html=1;" parent="XHf5zvwz7XtpQKsTTxTS-1" vertex="1">
          <mxGeometry x="185" y="910" width="120" height="60" as="geometry" />
        </mxCell>
        <mxCell id="kUZ-IrU6opu8I8vrN3aO-2" value="Proposed Plate Reader Work Flow Phase 1&amp;nbsp;&amp;nbsp;as of 3/16/20" style="text;html=1;align=center;verticalAlign=middle;resizable=0;points=[];autosize=1;fontSize=20;" parent="XHf5zvwz7XtpQKsTTxTS-1" vertex="1">
          <mxGeometry x="1860" width="530" height="30" as="geometry" />
        </mxCell>
        <mxCell id="kUZ-IrU6opu8I8vrN3aO-48" style="edgeStyle=orthogonalEdgeStyle;rounded=0;orthogonalLoop=1;jettySize=auto;html=1;entryX=0.5;entryY=0;entryDx=0;entryDy=0;fontSize=20;" parent="XHf5zvwz7XtpQKsTTxTS-1" source="kUZ-IrU6opu8I8vrN3aO-46" target="XHf5zvwz7XtpQKsTTxTS-2" edge="1">
          <mxGeometry relative="1" as="geometry" />
        </mxCell>
        <mxCell id="kUZ-IrU6opu8I8vrN3aO-46" value="&lt;font style=&quot;font-size: 12px&quot;&gt;Pending List&lt;br&gt;&lt;/font&gt;" style="rounded=0;whiteSpace=wrap;html=1;fontSize=20;" parent="XHf5zvwz7XtpQKsTTxTS-1" vertex="1">
          <mxGeometry x="185" y="140" width="120" height="50" as="geometry" />
        </mxCell>
        <mxCell id="kUZ-IrU6opu8I8vrN3aO-52" value="Upload" style="text;html=1;strokeColor=none;fillColor=none;align=center;verticalAlign=middle;whiteSpace=wrap;rounded=0;fontSize=12;" parent="XHf5zvwz7XtpQKsTTxTS-1" vertex="1">
          <mxGeometry x="225" y="880" width="40" height="20" as="geometry" />
        </mxCell>
        <mxCell id="kUZ-IrU6opu8I8vrN3aO-53" value="Download" style="text;html=1;strokeColor=none;fillColor=none;align=center;verticalAlign=middle;whiteSpace=wrap;rounded=0;fontSize=12;" parent="XHf5zvwz7XtpQKsTTxTS-1" vertex="1">
          <mxGeometry x="225" y="110" width="40" height="20" as="geometry" />
        </mxCell>
        <mxCell id="kUZ-IrU6opu8I8vrN3aO-59" style="edgeStyle=orthogonalEdgeStyle;rounded=0;orthogonalLoop=1;jettySize=auto;html=1;fontSize=12;" parent="XHf5zvwz7XtpQKsTTxTS-1" source="kUZ-IrU6opu8I8vrN3aO-57" target="XHf5zvwz7XtpQKsTTxTS-6" edge="1">
          <mxGeometry relative="1" as="geometry" />
        </mxCell>
        <mxCell id="kUZ-IrU6opu8I8vrN3aO-57" value="Create Build Plate File&lt;br&gt;&lt;br&gt;-Create a .txt file based on the build file for the instrument software (BiokTek Gen 5) to import" style="rounded=0;whiteSpace=wrap;html=1;" parent="XHf5zvwz7XtpQKsTTxTS-1" vertex="1">
          <mxGeometry x="46.25" y="335" width="397.5" height="60" as="geometry" />
        </mxCell>
        <mxCell id="kUZ-IrU6opu8I8vrN3aO-114" style="edgeStyle=orthogonalEdgeStyle;rounded=0;orthogonalLoop=1;jettySize=auto;html=1;entryX=0.5;entryY=0;entryDx=0;entryDy=0;fontSize=12;" parent="XHf5zvwz7XtpQKsTTxTS-1" source="kUZ-IrU6opu8I8vrN3aO-60" target="XHf5zvwz7XtpQKsTTxTS-10" edge="1">
          <mxGeometry relative="1" as="geometry" />
        </mxCell>
        <mxCell id="kUZ-IrU6opu8I8vrN3aO-60" value="Parse the .pwv file and extract raw results with poll.exe running on 1 system" style="rounded=0;whiteSpace=wrap;html=1;fontSize=12;" parent="XHf5zvwz7XtpQKsTTxTS-1" vertex="1">
          <mxGeometry x="165" y="530" width="160" height="60" as="geometry" />
        </mxCell>
        <mxCell id="kUZ-IrU6opu8I8vrN3aO-63" style="edgeStyle=orthogonalEdgeStyle;rounded=0;orthogonalLoop=1;jettySize=auto;html=1;entryX=0.5;entryY=0;entryDx=0;entryDy=0;fontSize=12;" parent="XHf5zvwz7XtpQKsTTxTS-1" source="kUZ-IrU6opu8I8vrN3aO-64" target="kUZ-IrU6opu8I8vrN3aO-85" edge="1">
          <mxGeometry relative="1" as="geometry" />
        </mxCell>
        <mxCell id="kUZ-IrU6opu8I8vrN3aO-64" value="Build Plate&lt;br&gt;&lt;br&gt;-User uses a template with preconfigured standards and controls&lt;br&gt;-User can place pending accessions in any order&lt;br&gt;-User can replicate the sample or tube to have multiple entries&lt;br&gt;-User can change the dilution of each replicate sample&lt;br&gt;-User can enter manual Dummy accession for Instrument Calibration" style="rounded=0;whiteSpace=wrap;html=1;" parent="XHf5zvwz7XtpQKsTTxTS-1" vertex="1">
          <mxGeometry x="628.75" y="210" width="380" height="100" as="geometry" />
        </mxCell>
        <mxCell id="kUZ-IrU6opu8I8vrN3aO-65" style="edgeStyle=orthogonalEdgeStyle;rounded=0;orthogonalLoop=1;jettySize=auto;html=1;entryX=0.5;entryY=0;entryDx=0;entryDy=0;fontSize=12;" parent="XHf5zvwz7XtpQKsTTxTS-1" source="kUZ-IrU6opu8I8vrN3aO-66" target="kUZ-IrU6opu8I8vrN3aO-81" edge="1">
          <mxGeometry relative="1" as="geometry" />
        </mxCell>
        <mxCell id="kUZ-IrU6opu8I8vrN3aO-66" value="Vaxcom" style="rounded=0;whiteSpace=wrap;html=1;" parent="XHf5zvwz7XtpQKsTTxTS-1" vertex="1">
          <mxGeometry x="758.75" y="40" width="120" height="60" as="geometry" />
        </mxCell>
        <mxCell id="kUZ-IrU6opu8I8vrN3aO-67" style="edgeStyle=orthogonalEdgeStyle;rounded=0;orthogonalLoop=1;jettySize=auto;html=1;entryX=0.5;entryY=0;entryDx=0;entryDy=0;fontSize=12;" parent="XHf5zvwz7XtpQKsTTxTS-1" source="kUZ-IrU6opu8I8vrN3aO-68" edge="1">
          <mxGeometry relative="1" as="geometry">
            <mxPoint x="818.75" y="530" as="targetPoint" />
          </mxGeometry>
        </mxCell>
        <mxCell id="kUZ-IrU6opu8I8vrN3aO-68" value="Perkin Elmer&lt;br&gt;&lt;br&gt;Instrument" style="shape=cube;whiteSpace=wrap;html=1;boundedLbl=1;backgroundOutline=1;darkOpacity=0.05;darkOpacity2=0.1;" parent="XHf5zvwz7XtpQKsTTxTS-1" vertex="1">
          <mxGeometry x="753.75" y="420" width="130" height="90" as="geometry" />
        </mxCell>
        <mxCell id="kUZ-IrU6opu8I8vrN3aO-74" style="edgeStyle=orthogonalEdgeStyle;rounded=0;orthogonalLoop=1;jettySize=auto;html=1;fontSize=20;entryX=1;entryY=0.5;entryDx=0;entryDy=0;exitX=1;exitY=0.5;exitDx=0;exitDy=0;" parent="XHf5zvwz7XtpQKsTTxTS-1" source="kUZ-IrU6opu8I8vrN3aO-115" target="kUZ-IrU6opu8I8vrN3aO-81" edge="1">
          <mxGeometry relative="1" as="geometry">
            <mxPoint x="1068.75" y="160" as="targetPoint" />
            <mxPoint x="1013.75" y="830" as="sourcePoint" />
            <Array as="points">
              <mxPoint x="1039" y="670" />
              <mxPoint x="1039" y="165" />
            </Array>
          </mxGeometry>
        </mxCell>
        <mxCell id="kUZ-IrU6opu8I8vrN3aO-75" value="&lt;font style=&quot;font-size: 12px&quot;&gt;Repeat and Vaxcom Upload&lt;/font&gt;" style="text;html=1;align=center;verticalAlign=middle;resizable=0;points=[];labelBackgroundColor=#ffffff;fontSize=20;" parent="kUZ-IrU6opu8I8vrN3aO-74" vertex="1" connectable="0">
          <mxGeometry x="-0.2216" y="-1" relative="1" as="geometry">
            <mxPoint as="offset" />
          </mxGeometry>
        </mxCell>
        <mxCell id="kUZ-IrU6opu8I8vrN3aO-77" style="edgeStyle=orthogonalEdgeStyle;rounded=0;orthogonalLoop=1;jettySize=auto;html=1;fontSize=20;" parent="XHf5zvwz7XtpQKsTTxTS-1" source="kUZ-IrU6opu8I8vrN3aO-78" target="kUZ-IrU6opu8I8vrN3aO-79" edge="1">
          <mxGeometry relative="1" as="geometry">
            <Array as="points">
              <mxPoint x="818.75" y="910" />
              <mxPoint x="818.75" y="910" />
            </Array>
          </mxGeometry>
        </mxCell>
        <mxCell id="PoXGvX9ns4Eya7C4yh-R-28" style="edgeStyle=orthogonalEdgeStyle;rounded=0;orthogonalLoop=1;jettySize=auto;html=1;entryX=1;entryY=0.5;entryDx=0;entryDy=0;fontSize=12;" parent="XHf5zvwz7XtpQKsTTxTS-1" source="kUZ-IrU6opu8I8vrN3aO-78" target="kUZ-IrU6opu8I8vrN3aO-81" edge="1">
          <mxGeometry relative="1" as="geometry">
            <Array as="points">
              <mxPoint x="1040" y="810" />
              <mxPoint x="1040" y="165" />
            </Array>
          </mxGeometry>
        </mxCell>
        <mxCell id="kUZ-IrU6opu8I8vrN3aO-78" value="Finalize Plate Results&lt;br&gt;&lt;br&gt;-User can change the phase to Accept/Repeat/Hold/Cancel one or all samples, one or all hostanalyte codes&lt;br&gt;-User can add additional canned comments&lt;br&gt;-User can add Text Comments&lt;br&gt;-User can manually modify the result" style="rounded=0;whiteSpace=wrap;html=1;" parent="XHf5zvwz7XtpQKsTTxTS-1" vertex="1">
          <mxGeometry x="623.75" y="750" width="390" height="120" as="geometry" />
        </mxCell>
        <mxCell id="kUZ-IrU6opu8I8vrN3aO-79" value="Vaxcom" style="rounded=0;whiteSpace=wrap;html=1;" parent="XHf5zvwz7XtpQKsTTxTS-1" vertex="1">
          <mxGeometry x="758.75" y="910" width="120" height="60" as="geometry" />
        </mxCell>
        <mxCell id="kUZ-IrU6opu8I8vrN3aO-80" style="edgeStyle=orthogonalEdgeStyle;rounded=0;orthogonalLoop=1;jettySize=auto;html=1;entryX=0.5;entryY=0;entryDx=0;entryDy=0;fontSize=20;" parent="XHf5zvwz7XtpQKsTTxTS-1" source="kUZ-IrU6opu8I8vrN3aO-81" target="kUZ-IrU6opu8I8vrN3aO-64" edge="1">
          <mxGeometry relative="1" as="geometry" />
        </mxCell>
        <mxCell id="kUZ-IrU6opu8I8vrN3aO-81" value="&lt;font style=&quot;font-size: 12px&quot;&gt;Pending List&lt;br&gt;&lt;/font&gt;" style="rounded=0;whiteSpace=wrap;html=1;fontSize=20;" parent="XHf5zvwz7XtpQKsTTxTS-1" vertex="1">
          <mxGeometry x="758.75" y="140" width="120" height="50" as="geometry" />
        </mxCell>
        <mxCell id="kUZ-IrU6opu8I8vrN3aO-82" value="Upload" style="text;html=1;strokeColor=none;fillColor=none;align=center;verticalAlign=middle;whiteSpace=wrap;rounded=0;fontSize=12;" parent="XHf5zvwz7XtpQKsTTxTS-1" vertex="1">
          <mxGeometry x="798.75" y="880" width="40" height="20" as="geometry" />
        </mxCell>
        <mxCell id="kUZ-IrU6opu8I8vrN3aO-83" value="Download" style="text;html=1;strokeColor=none;fillColor=none;align=center;verticalAlign=middle;whiteSpace=wrap;rounded=0;fontSize=12;" parent="XHf5zvwz7XtpQKsTTxTS-1" vertex="1">
          <mxGeometry x="798.75" y="110" width="40" height="20" as="geometry" />
        </mxCell>
        <mxCell id="kUZ-IrU6opu8I8vrN3aO-84" style="edgeStyle=orthogonalEdgeStyle;rounded=0;orthogonalLoop=1;jettySize=auto;html=1;fontSize=12;" parent="XHf5zvwz7XtpQKsTTxTS-1" source="kUZ-IrU6opu8I8vrN3aO-85" target="kUZ-IrU6opu8I8vrN3aO-68" edge="1">
          <mxGeometry relative="1" as="geometry" />
        </mxCell>
        <mxCell id="kUZ-IrU6opu8I8vrN3aO-85" value="Create Build Plate File&lt;br&gt;&lt;br&gt;-Create a .xlsx file based on the build file for the instrument software (PE Wizard) to import" style="rounded=0;whiteSpace=wrap;html=1;" parent="XHf5zvwz7XtpQKsTTxTS-1" vertex="1">
          <mxGeometry x="620" y="335" width="397.5" height="60" as="geometry" />
        </mxCell>
        <mxCell id="kUZ-IrU6opu8I8vrN3aO-88" style="edgeStyle=orthogonalEdgeStyle;rounded=0;orthogonalLoop=1;jettySize=auto;html=1;entryX=0.5;entryY=0;entryDx=0;entryDy=0;fontSize=12;" parent="XHf5zvwz7XtpQKsTTxTS-1" source="kUZ-IrU6opu8I8vrN3aO-89" target="kUZ-IrU6opu8I8vrN3aO-110" edge="1">
          <mxGeometry relative="1" as="geometry" />
        </mxCell>
        <mxCell id="kUZ-IrU6opu8I8vrN3aO-90" style="edgeStyle=orthogonalEdgeStyle;rounded=0;orthogonalLoop=1;jettySize=auto;html=1;entryX=0.5;entryY=0;entryDx=0;entryDy=0;fontSize=12;" parent="XHf5zvwz7XtpQKsTTxTS-1" source="kUZ-IrU6opu8I8vrN3aO-91" target="kUZ-IrU6opu8I8vrN3aO-106" edge="1">
          <mxGeometry relative="1" as="geometry" />
        </mxCell>
        <mxCell id="kUZ-IrU6opu8I8vrN3aO-92" style="edgeStyle=orthogonalEdgeStyle;rounded=0;orthogonalLoop=1;jettySize=auto;html=1;entryX=0.5;entryY=0;entryDx=0;entryDy=0;fontSize=12;" parent="XHf5zvwz7XtpQKsTTxTS-1" source="kUZ-IrU6opu8I8vrN3aO-93" target="kUZ-IrU6opu8I8vrN3aO-112" edge="1">
          <mxGeometry relative="1" as="geometry" />
        </mxCell>
        <mxCell id="kUZ-IrU6opu8I8vrN3aO-94" style="edgeStyle=orthogonalEdgeStyle;rounded=0;orthogonalLoop=1;jettySize=auto;html=1;entryX=0.5;entryY=0;entryDx=0;entryDy=0;fontSize=20;" parent="XHf5zvwz7XtpQKsTTxTS-1" source="kUZ-IrU6opu8I8vrN3aO-95" target="kUZ-IrU6opu8I8vrN3aO-97" edge="1">
          <mxGeometry relative="1" as="geometry" />
        </mxCell>
        <mxCell id="kUZ-IrU6opu8I8vrN3aO-96" style="edgeStyle=orthogonalEdgeStyle;rounded=0;orthogonalLoop=1;jettySize=auto;html=1;entryX=0.5;entryY=0;entryDx=0;entryDy=0;fontSize=20;" parent="XHf5zvwz7XtpQKsTTxTS-1" source="kUZ-IrU6opu8I8vrN3aO-97" target="kUZ-IrU6opu8I8vrN3aO-101" edge="1">
          <mxGeometry relative="1" as="geometry" />
        </mxCell>
        <mxCell id="kUZ-IrU6opu8I8vrN3aO-98" style="edgeStyle=orthogonalEdgeStyle;rounded=0;orthogonalLoop=1;jettySize=auto;html=1;fontSize=20;" parent="XHf5zvwz7XtpQKsTTxTS-1" source="kUZ-IrU6opu8I8vrN3aO-101" target="kUZ-IrU6opu8I8vrN3aO-103" edge="1">
          <mxGeometry relative="1" as="geometry" />
        </mxCell>
        <mxCell id="kUZ-IrU6opu8I8vrN3aO-99" style="edgeStyle=orthogonalEdgeStyle;rounded=0;orthogonalLoop=1;jettySize=auto;html=1;fontSize=20;entryX=1;entryY=0.5;entryDx=0;entryDy=0;exitX=1;exitY=0.5;exitDx=0;exitDy=0;" parent="XHf5zvwz7XtpQKsTTxTS-1" source="kUZ-IrU6opu8I8vrN3aO-101" target="kUZ-IrU6opu8I8vrN3aO-106" edge="1">
          <mxGeometry relative="1" as="geometry">
            <mxPoint x="2363.75" y="140" as="targetPoint" />
            <mxPoint x="2333.75" y="840" as="sourcePoint" />
            <Array as="points">
              <mxPoint x="2334" y="810" />
              <mxPoint x="2334" y="145" />
            </Array>
          </mxGeometry>
        </mxCell>
        <mxCell id="kUZ-IrU6opu8I8vrN3aO-100" value="&lt;font style=&quot;font-size: 12px&quot;&gt;Repeat and Upload partial results&lt;/font&gt;" style="text;html=1;align=center;verticalAlign=middle;resizable=0;points=[];labelBackgroundColor=#ffffff;fontSize=20;" parent="kUZ-IrU6opu8I8vrN3aO-99" vertex="1" connectable="0">
          <mxGeometry x="-0.2216" y="-1" relative="1" as="geometry">
            <mxPoint as="offset" />
          </mxGeometry>
        </mxCell>
        <mxCell id="kUZ-IrU6opu8I8vrN3aO-102" style="edgeStyle=orthogonalEdgeStyle;rounded=0;orthogonalLoop=1;jettySize=auto;html=1;fontSize=20;" parent="XHf5zvwz7XtpQKsTTxTS-1" source="kUZ-IrU6opu8I8vrN3aO-103" target="kUZ-IrU6opu8I8vrN3aO-104" edge="1">
          <mxGeometry relative="1" as="geometry">
            <Array as="points">
              <mxPoint x="2113.75" y="1050" />
              <mxPoint x="2113.75" y="1050" />
            </Array>
          </mxGeometry>
        </mxCell>
        <mxCell id="kUZ-IrU6opu8I8vrN3aO-120" style="edgeStyle=orthogonalEdgeStyle;rounded=0;orthogonalLoop=1;jettySize=auto;html=1;entryX=1;entryY=0.5;entryDx=0;entryDy=0;fontSize=12;" parent="XHf5zvwz7XtpQKsTTxTS-1" source="kUZ-IrU6opu8I8vrN3aO-103" target="kUZ-IrU6opu8I8vrN3aO-106" edge="1">
          <mxGeometry relative="1" as="geometry">
            <Array as="points">
              <mxPoint x="2335" y="950" />
              <mxPoint x="2335" y="145" />
            </Array>
          </mxGeometry>
        </mxCell>
        <mxCell id="kUZ-IrU6opu8I8vrN3aO-105" style="edgeStyle=orthogonalEdgeStyle;rounded=0;orthogonalLoop=1;jettySize=auto;html=1;entryX=0.5;entryY=0;entryDx=0;entryDy=0;fontSize=20;" parent="XHf5zvwz7XtpQKsTTxTS-1" source="kUZ-IrU6opu8I8vrN3aO-106" target="kUZ-IrU6opu8I8vrN3aO-89" edge="1">
          <mxGeometry relative="1" as="geometry" />
        </mxCell>
        <mxCell id="kUZ-IrU6opu8I8vrN3aO-109" style="edgeStyle=orthogonalEdgeStyle;rounded=0;orthogonalLoop=1;jettySize=auto;html=1;fontSize=12;" parent="XHf5zvwz7XtpQKsTTxTS-1" source="kUZ-IrU6opu8I8vrN3aO-110" target="kUZ-IrU6opu8I8vrN3aO-93" edge="1">
          <mxGeometry relative="1" as="geometry" />
        </mxCell>
        <mxCell id="kUZ-IrU6opu8I8vrN3aO-111" style="edgeStyle=orthogonalEdgeStyle;rounded=0;orthogonalLoop=1;jettySize=auto;html=1;fontSize=12;" parent="XHf5zvwz7XtpQKsTTxTS-1" source="kUZ-IrU6opu8I8vrN3aO-112" target="kUZ-IrU6opu8I8vrN3aO-95" edge="1">
          <mxGeometry relative="1" as="geometry" />
        </mxCell>
        <mxCell id="kUZ-IrU6opu8I8vrN3aO-118" value="" style="edgeStyle=orthogonalEdgeStyle;rounded=0;orthogonalLoop=1;jettySize=auto;html=1;fontSize=12;" parent="XHf5zvwz7XtpQKsTTxTS-1" source="kUZ-IrU6opu8I8vrN3aO-113" target="kUZ-IrU6opu8I8vrN3aO-115" edge="1">
          <mxGeometry relative="1" as="geometry" />
        </mxCell>
        <mxCell id="kUZ-IrU6opu8I8vrN3aO-113" value="Parse the .xlsx file and extract raw results with Gammacounterpoll.exe running on 1 system" style="rounded=0;whiteSpace=wrap;html=1;fontSize=12;" parent="XHf5zvwz7XtpQKsTTxTS-1" vertex="1">
          <mxGeometry x="738.75" y="530" width="160" height="60" as="geometry" />
        </mxCell>
        <mxCell id="kUZ-IrU6opu8I8vrN3aO-119" value="" style="edgeStyle=orthogonalEdgeStyle;rounded=0;orthogonalLoop=1;jettySize=auto;html=1;fontSize=12;" parent="XHf5zvwz7XtpQKsTTxTS-1" source="kUZ-IrU6opu8I8vrN3aO-115" target="kUZ-IrU6opu8I8vrN3aO-78" edge="1">
          <mxGeometry relative="1" as="geometry" />
        </mxCell>
        <mxCell id="kUZ-IrU6opu8I8vrN3aO-115" value="View Plate Results/Calculate Raw Result/Apply Reporting Rules on View&lt;br&gt;&lt;br&gt;-User can change the phase to Accept/Repeat/Hold/Cancel one or all samples, one or all hostanalyte codes&lt;br&gt;-User can add additional canned comments&lt;br&gt;-User can add Text Comments&lt;br&gt;-User can manually modify the result" style="rounded=0;whiteSpace=wrap;html=1;" parent="XHf5zvwz7XtpQKsTTxTS-1" vertex="1">
          <mxGeometry x="623.75" y="610" width="390" height="120" as="geometry" />
        </mxCell>
      </root>
    </mxGraphModel>
  </diagram>
  <diagram name="ProposedWorkflowDetailed" id="J9pK6EYRASMpvrNvuZnZ">
    <mxGraphModel dx="2912" dy="2254" grid="1" gridSize="10" guides="1" tooltips="1" connect="1" arrows="1" fold="1" page="1" pageScale="1" pageWidth="850" pageHeight="1100" math="0" shadow="0">
      <root>
        <mxCell id="0" />
        <mxCell id="1" parent="0" />
        <mxCell id="pYY1f4qUFG_NNyWXXLFZ-145" value="MongoDB" style="rounded=0;whiteSpace=wrap;html=1;align=center;" parent="1" vertex="1">
          <mxGeometry x="-20" y="420" width="560" height="230" as="geometry" />
        </mxCell>
        <mxCell id="pYY1f4qUFG_NNyWXXLFZ-133" value="Vaxcom Process &lt;br&gt;will be elimnated" style="rounded=0;whiteSpace=wrap;html=1;" parent="1" vertex="1">
          <mxGeometry x="433.5" y="-245" width="483" height="452" as="geometry" />
        </mxCell>
        <mxCell id="pYY1f4qUFG_NNyWXXLFZ-26" value="tb_PatientResult (tb_result)" style="swimlane;fontStyle=0;childLayout=stackLayout;horizontal=1;startSize=26;fillColor=#e0e0e0;horizontalStack=0;resizeParent=1;resizeParentMax=0;resizeLast=0;collapsible=1;marginBottom=0;swimlaneFillColor=#ffffff;align=center;fontSize=14;" parent="1" vertex="1">
          <mxGeometry x="580" y="113" width="190" height="506" as="geometry" />
        </mxCell>
        <mxCell id="pYY1f4qUFG_NNyWXXLFZ-27" value="AccessionNo" style="shape=partialRectangle;top=0;left=0;right=0;bottom=1;align=left;verticalAlign=middle;fillColor=none;spacingLeft=34;spacingRight=4;overflow=hidden;rotatable=0;points=[[0,0.5],[1,0.5]];portConstraint=eastwest;dropTarget=0;fontStyle=5;fontSize=12;" parent="pYY1f4qUFG_NNyWXXLFZ-26" vertex="1">
          <mxGeometry y="26" width="190" height="30" as="geometry" />
        </mxCell>
        <mxCell id="pYY1f4qUFG_NNyWXXLFZ-28" value="PK" style="shape=partialRectangle;top=0;left=0;bottom=0;fillColor=none;align=left;verticalAlign=middle;spacingLeft=4;spacingRight=4;overflow=hidden;rotatable=0;points=[];portConstraint=eastwest;part=1;fontSize=12;" parent="pYY1f4qUFG_NNyWXXLFZ-27" vertex="1" connectable="0">
          <mxGeometry width="30" height="30" as="geometry" />
        </mxCell>
        <mxCell id="pYY1f4qUFG_NNyWXXLFZ-37" value="WorksheetNo" style="shape=partialRectangle;top=0;left=0;right=0;bottom=1;align=left;verticalAlign=middle;fillColor=none;spacingLeft=34;spacingRight=4;overflow=hidden;rotatable=0;points=[[0,0.5],[1,0.5]];portConstraint=eastwest;dropTarget=0;fontStyle=4;fontSize=12;" parent="pYY1f4qUFG_NNyWXXLFZ-26" vertex="1">
          <mxGeometry y="56" width="190" height="30" as="geometry" />
        </mxCell>
        <mxCell id="pYY1f4qUFG_NNyWXXLFZ-38" value="PK" style="shape=partialRectangle;top=0;left=0;bottom=0;fillColor=none;align=left;verticalAlign=middle;spacingLeft=4;spacingRight=4;overflow=hidden;rotatable=0;points=[];portConstraint=eastwest;part=1;fontSize=12;" parent="pYY1f4qUFG_NNyWXXLFZ-37" vertex="1" connectable="0">
          <mxGeometry width="30" height="30" as="geometry" />
        </mxCell>
        <mxCell id="pYY1f4qUFG_NNyWXXLFZ-62" value="Unitcode" style="shape=partialRectangle;top=0;left=0;right=0;bottom=1;align=left;verticalAlign=middle;fillColor=none;spacingLeft=34;spacingRight=4;overflow=hidden;rotatable=0;points=[[0,0.5],[1,0.5]];portConstraint=eastwest;dropTarget=0;fontStyle=4;fontSize=12;" parent="pYY1f4qUFG_NNyWXXLFZ-26" vertex="1">
          <mxGeometry y="86" width="190" height="30" as="geometry" />
        </mxCell>
        <mxCell id="pYY1f4qUFG_NNyWXXLFZ-63" value="PK" style="shape=partialRectangle;top=0;left=0;bottom=0;fillColor=none;align=left;verticalAlign=middle;spacingLeft=4;spacingRight=4;overflow=hidden;rotatable=0;points=[];portConstraint=eastwest;part=1;fontSize=12;" parent="pYY1f4qUFG_NNyWXXLFZ-62" vertex="1" connectable="0">
          <mxGeometry width="30" height="30" as="geometry" />
        </mxCell>
        <mxCell id="pYY1f4qUFG_NNyWXXLFZ-21" value="AnalytePos" style="text;strokeColor=none;fillColor=none;spacingLeft=4;spacingRight=4;overflow=hidden;rotatable=0;points=[[0,0.5],[1,0.5]];portConstraint=eastwest;fontSize=12;fontStyle=1" parent="pYY1f4qUFG_NNyWXXLFZ-26" vertex="1">
          <mxGeometry y="116" width="190" height="26" as="geometry" />
        </mxCell>
        <mxCell id="pYY1f4qUFG_NNyWXXLFZ-9" value="Phase" style="text;strokeColor=none;fillColor=none;spacingLeft=4;spacingRight=4;overflow=hidden;rotatable=0;points=[[0,0.5],[1,0.5]];portConstraint=eastwest;fontSize=12;" parent="pYY1f4qUFG_NNyWXXLFZ-26" vertex="1">
          <mxGeometry y="142" width="190" height="26" as="geometry" />
        </mxCell>
        <mxCell id="pYY1f4qUFG_NNyWXXLFZ-10" value="GroupNo" style="text;strokeColor=none;fillColor=none;spacingLeft=4;spacingRight=4;overflow=hidden;rotatable=0;points=[[0,0.5],[1,0.5]];portConstraint=eastwest;fontSize=12;" parent="pYY1f4qUFG_NNyWXXLFZ-26" vertex="1">
          <mxGeometry y="168" width="190" height="26" as="geometry" />
        </mxCell>
        <mxCell id="pYY1f4qUFG_NNyWXXLFZ-11" value="Result" style="text;strokeColor=none;fillColor=none;spacingLeft=4;spacingRight=4;overflow=hidden;rotatable=0;points=[[0,0.5],[1,0.5]];portConstraint=eastwest;fontSize=12;" parent="pYY1f4qUFG_NNyWXXLFZ-26" vertex="1">
          <mxGeometry y="194" width="190" height="26" as="geometry" />
        </mxCell>
        <mxCell id="pYY1f4qUFG_NNyWXXLFZ-12" value="Previous Result" style="text;strokeColor=none;fillColor=none;spacingLeft=4;spacingRight=4;overflow=hidden;rotatable=0;points=[[0,0.5],[1,0.5]];portConstraint=eastwest;fontSize=12;" parent="pYY1f4qUFG_NNyWXXLFZ-26" vertex="1">
          <mxGeometry y="220" width="190" height="26" as="geometry" />
        </mxCell>
        <mxCell id="pYY1f4qUFG_NNyWXXLFZ-14" value="WorksheetNo" style="text;strokeColor=none;fillColor=none;spacingLeft=4;spacingRight=4;overflow=hidden;rotatable=0;points=[[0,0.5],[1,0.5]];portConstraint=eastwest;fontSize=12;" parent="pYY1f4qUFG_NNyWXXLFZ-26" vertex="1">
          <mxGeometry y="246" width="190" height="26" as="geometry" />
        </mxCell>
        <mxCell id="pYY1f4qUFG_NNyWXXLFZ-16" value="Phase" style="text;strokeColor=none;fillColor=none;spacingLeft=4;spacingRight=4;overflow=hidden;rotatable=0;points=[[0,0.5],[1,0.5]];portConstraint=eastwest;fontSize=12;" parent="pYY1f4qUFG_NNyWXXLFZ-26" vertex="1">
          <mxGeometry y="272" width="190" height="26" as="geometry" />
        </mxCell>
        <mxCell id="pYY1f4qUFG_NNyWXXLFZ-17" value="Status" style="text;strokeColor=none;fillColor=none;spacingLeft=4;spacingRight=4;overflow=hidden;rotatable=0;points=[[0,0.5],[1,0.5]];portConstraint=eastwest;fontSize=12;" parent="pYY1f4qUFG_NNyWXXLFZ-26" vertex="1">
          <mxGeometry y="298" width="190" height="26" as="geometry" />
        </mxCell>
        <mxCell id="pYY1f4qUFG_NNyWXXLFZ-18" value="CannedComment" style="text;strokeColor=none;fillColor=none;spacingLeft=4;spacingRight=4;overflow=hidden;rotatable=0;points=[[0,0.5],[1,0.5]];portConstraint=eastwest;fontSize=12;" parent="pYY1f4qUFG_NNyWXXLFZ-26" vertex="1">
          <mxGeometry y="324" width="190" height="26" as="geometry" />
        </mxCell>
        <mxCell id="pYY1f4qUFG_NNyWXXLFZ-19" value="TextComments" style="text;strokeColor=none;fillColor=none;spacingLeft=4;spacingRight=4;overflow=hidden;rotatable=0;points=[[0,0.5],[1,0.5]];portConstraint=eastwest;fontSize=12;" parent="pYY1f4qUFG_NNyWXXLFZ-26" vertex="1">
          <mxGeometry y="350" width="190" height="26" as="geometry" />
        </mxCell>
        <mxCell id="pYY1f4qUFG_NNyWXXLFZ-20" value="Aliquot" style="text;strokeColor=none;fillColor=none;spacingLeft=4;spacingRight=4;overflow=hidden;rotatable=0;points=[[0,0.5],[1,0.5]];portConstraint=eastwest;fontSize=12;" parent="pYY1f4qUFG_NNyWXXLFZ-26" vertex="1">
          <mxGeometry y="376" width="190" height="26" as="geometry" />
        </mxCell>
        <mxCell id="pYY1f4qUFG_NNyWXXLFZ-22" value="AliquotNo" style="text;strokeColor=none;fillColor=none;spacingLeft=4;spacingRight=4;overflow=hidden;rotatable=0;points=[[0,0.5],[1,0.5]];portConstraint=eastwest;fontSize=12;fontStyle=1" parent="pYY1f4qUFG_NNyWXXLFZ-26" vertex="1">
          <mxGeometry y="402" width="190" height="26" as="geometry" />
        </mxCell>
        <mxCell id="pYY1f4qUFG_NNyWXXLFZ-23" value="RackSequence" style="text;strokeColor=none;fillColor=none;spacingLeft=4;spacingRight=4;overflow=hidden;rotatable=0;points=[[0,0.5],[1,0.5]];portConstraint=eastwest;fontSize=12;" parent="pYY1f4qUFG_NNyWXXLFZ-26" vertex="1">
          <mxGeometry y="428" width="190" height="26" as="geometry" />
        </mxCell>
        <mxCell id="pYY1f4qUFG_NNyWXXLFZ-24" value="HostAanlyteCode" style="text;strokeColor=none;fillColor=none;spacingLeft=4;spacingRight=4;overflow=hidden;rotatable=0;points=[[0,0.5],[1,0.5]];portConstraint=eastwest;fontSize=12;" parent="pYY1f4qUFG_NNyWXXLFZ-26" vertex="1">
          <mxGeometry y="454" width="190" height="26" as="geometry" />
        </mxCell>
        <mxCell id="pYY1f4qUFG_NNyWXXLFZ-25" value="HostAnalyteMnemonic" style="text;strokeColor=none;fillColor=none;spacingLeft=4;spacingRight=4;overflow=hidden;rotatable=0;points=[[0,0.5],[1,0.5]];portConstraint=eastwest;fontSize=12;" parent="pYY1f4qUFG_NNyWXXLFZ-26" vertex="1">
          <mxGeometry y="480" width="190" height="26" as="geometry" />
        </mxCell>
        <mxCell id="pYY1f4qUFG_NNyWXXLFZ-53" value="" style="edgeStyle=entityRelationEdgeStyle;fontSize=12;html=1;endArrow=ERmandOne;startArrow=ERmandOne;entryX=0;entryY=0.5;entryDx=0;entryDy=0;exitX=1;exitY=0.5;exitDx=0;exitDy=0;" parent="1" source="pYY1f4qUFG_NNyWXXLFZ-60" target="pYY1f4qUFG_NNyWXXLFZ-62" edge="1">
          <mxGeometry width="100" height="100" relative="1" as="geometry">
            <mxPoint x="360" y="340" as="sourcePoint" />
            <mxPoint x="570" y="307" as="targetPoint" />
          </mxGeometry>
        </mxCell>
        <mxCell id="pYY1f4qUFG_NNyWXXLFZ-60" value="Has Unitcode or test" style="shape=rhombus;strokeWidth=2;fontSize=17;perimeter=rhombusPerimeter;whiteSpace=wrap;html=1;align=center;fontSize=14;" parent="1" vertex="1">
          <mxGeometry x="313.5" y="226" width="120" height="123" as="geometry" />
        </mxCell>
        <mxCell id="pYY1f4qUFG_NNyWXXLFZ-61" value="" style="edgeStyle=entityRelationEdgeStyle;fontSize=12;html=1;endArrow=ERmandOne;startArrow=ERmandOne;entryX=0;entryY=0.5;entryDx=0;entryDy=0;exitX=1;exitY=0.5;exitDx=0;exitDy=0;" parent="1" source="pYY1f4qUFG_NNyWXXLFZ-42" target="pYY1f4qUFG_NNyWXXLFZ-60" edge="1">
          <mxGeometry width="100" height="100" relative="1" as="geometry">
            <mxPoint x="260" y="171" as="sourcePoint" />
            <mxPoint x="530" y="359" as="targetPoint" />
          </mxGeometry>
        </mxCell>
        <mxCell id="pYY1f4qUFG_NNyWXXLFZ-77" style="edgeStyle=orthogonalEdgeStyle;rounded=0;orthogonalLoop=1;jettySize=auto;html=1;entryX=0.5;entryY=0;entryDx=0;entryDy=0;" parent="1" source="pYY1f4qUFG_NNyWXXLFZ-66" target="pYY1f4qUFG_NNyWXXLFZ-68" edge="1">
          <mxGeometry relative="1" as="geometry" />
        </mxCell>
        <mxCell id="pYY1f4qUFG_NNyWXXLFZ-66" value="LIS" style="shape=cylinder;whiteSpace=wrap;html=1;boundedLbl=1;backgroundOutline=1;" parent="1" vertex="1">
          <mxGeometry x="640" y="-180" width="60" height="80" as="geometry" />
        </mxCell>
        <mxCell id="pYY1f4qUFG_NNyWXXLFZ-82" style="edgeStyle=orthogonalEdgeStyle;rounded=0;orthogonalLoop=1;jettySize=auto;html=1;entryX=1;entryY=0.5;entryDx=0;entryDy=0;" parent="1" source="pYY1f4qUFG_NNyWXXLFZ-67" target="pYY1f4qUFG_NNyWXXLFZ-66" edge="1">
          <mxGeometry relative="1" as="geometry">
            <Array as="points">
              <mxPoint x="810" y="-140" />
            </Array>
          </mxGeometry>
        </mxCell>
        <mxCell id="pYY1f4qUFG_NNyWXXLFZ-67" value="VAXCOM&lt;br&gt;Uploads to" style="shape=rhombus;strokeWidth=2;fontSize=17;perimeter=rhombusPerimeter;whiteSpace=wrap;html=1;align=center;fontSize=14;" parent="1" vertex="1">
          <mxGeometry x="750" y="-60" width="120" height="110" as="geometry" />
        </mxCell>
        <mxCell id="pYY1f4qUFG_NNyWXXLFZ-76" style="edgeStyle=orthogonalEdgeStyle;rounded=0;orthogonalLoop=1;jettySize=auto;html=1;entryX=0;entryY=0.5;entryDx=0;entryDy=0;" parent="1" source="pYY1f4qUFG_NNyWXXLFZ-68" target="pYY1f4qUFG_NNyWXXLFZ-37" edge="1">
          <mxGeometry relative="1" as="geometry" />
        </mxCell>
        <mxCell id="pYY1f4qUFG_NNyWXXLFZ-68" value="VAXCOM Downloads to" style="shape=rhombus;strokeWidth=2;fontSize=17;perimeter=rhombusPerimeter;whiteSpace=wrap;html=1;align=center;fontSize=14;" parent="1" vertex="1">
          <mxGeometry x="480" y="-70" width="120" height="130" as="geometry" />
        </mxCell>
        <mxCell id="pYY1f4qUFG_NNyWXXLFZ-79" style="edgeStyle=orthogonalEdgeStyle;rounded=0;orthogonalLoop=1;jettySize=auto;html=1;entryX=0.5;entryY=1;entryDx=0;entryDy=0;" parent="1" source="pYY1f4qUFG_NNyWXXLFZ-37" target="pYY1f4qUFG_NNyWXXLFZ-67" edge="1">
          <mxGeometry relative="1" as="geometry" />
        </mxCell>
        <mxCell id="pYY1f4qUFG_NNyWXXLFZ-100" value="tb_UserLog **ask Columba" style="swimlane;fontStyle=0;childLayout=stackLayout;horizontal=1;startSize=26;fillColor=#e0e0e0;horizontalStack=0;resizeParent=1;resizeParentMax=0;resizeLast=0;collapsible=1;marginBottom=0;swimlaneFillColor=#ffffff;align=center;fontSize=14;" parent="1" vertex="1">
          <mxGeometry x="960" y="215" width="160" height="116" as="geometry" />
        </mxCell>
        <mxCell id="pYY1f4qUFG_NNyWXXLFZ-101" value="PostData" style="shape=partialRectangle;top=0;left=0;right=0;bottom=1;align=left;verticalAlign=middle;fillColor=none;spacingLeft=34;spacingRight=4;overflow=hidden;rotatable=0;points=[[0,0.5],[1,0.5]];portConstraint=eastwest;dropTarget=0;fontStyle=5;fontSize=12;" parent="pYY1f4qUFG_NNyWXXLFZ-100" vertex="1">
          <mxGeometry y="26" width="160" height="30" as="geometry" />
        </mxCell>
        <mxCell id="pYY1f4qUFG_NNyWXXLFZ-102" value="PK" style="shape=partialRectangle;top=0;left=0;bottom=0;fillColor=none;align=left;verticalAlign=middle;spacingLeft=4;spacingRight=4;overflow=hidden;rotatable=0;points=[];portConstraint=eastwest;part=1;fontSize=12;" parent="pYY1f4qUFG_NNyWXXLFZ-101" vertex="1" connectable="0">
          <mxGeometry width="30" height="30" as="geometry" />
        </mxCell>
        <mxCell id="pYY1f4qUFG_NNyWXXLFZ-111" value="Datetime to seconds" style="shape=partialRectangle;top=0;left=0;right=0;bottom=1;align=left;verticalAlign=middle;fillColor=none;spacingLeft=34;spacingRight=4;overflow=hidden;rotatable=0;points=[[0,0.5],[1,0.5]];portConstraint=eastwest;dropTarget=0;fontStyle=5;fontSize=12;" parent="pYY1f4qUFG_NNyWXXLFZ-100" vertex="1">
          <mxGeometry y="56" width="160" height="30" as="geometry" />
        </mxCell>
        <mxCell id="pYY1f4qUFG_NNyWXXLFZ-112" value="PK" style="shape=partialRectangle;top=0;left=0;bottom=0;fillColor=none;align=left;verticalAlign=middle;spacingLeft=4;spacingRight=4;overflow=hidden;rotatable=0;points=[];portConstraint=eastwest;part=1;fontSize=12;" parent="pYY1f4qUFG_NNyWXXLFZ-111" vertex="1" connectable="0">
          <mxGeometry width="30" height="30" as="geometry" />
        </mxCell>
        <mxCell id="pYY1f4qUFG_NNyWXXLFZ-113" value="UnitCode" style="shape=partialRectangle;top=0;left=0;right=0;bottom=1;align=left;verticalAlign=middle;fillColor=none;spacingLeft=34;spacingRight=4;overflow=hidden;rotatable=0;points=[[0,0.5],[1,0.5]];portConstraint=eastwest;dropTarget=0;fontStyle=5;fontSize=12;" parent="pYY1f4qUFG_NNyWXXLFZ-100" vertex="1">
          <mxGeometry y="86" width="160" height="30" as="geometry" />
        </mxCell>
        <mxCell id="pYY1f4qUFG_NNyWXXLFZ-114" value="PK" style="shape=partialRectangle;top=0;left=0;bottom=0;fillColor=none;align=left;verticalAlign=middle;spacingLeft=4;spacingRight=4;overflow=hidden;rotatable=0;points=[];portConstraint=eastwest;part=1;fontSize=12;" parent="pYY1f4qUFG_NNyWXXLFZ-113" vertex="1" connectable="0">
          <mxGeometry width="30" height="30" as="geometry" />
        </mxCell>
        <mxCell id="pYY1f4qUFG_NNyWXXLFZ-134" value="tb_BuildProtocol" style="swimlane;fontStyle=0;childLayout=stackLayout;horizontal=1;startSize=26;fillColor=#e0e0e0;horizontalStack=0;resizeParent=1;resizeParentMax=0;resizeLast=0;collapsible=1;marginBottom=0;swimlaneFillColor=#ffffff;align=center;fontSize=14;" parent="1" vertex="1">
          <mxGeometry x="10" y="438" width="160" height="82" as="geometry" />
        </mxCell>
        <mxCell id="pYY1f4qUFG_NNyWXXLFZ-135" value="Accessionno" style="shape=partialRectangle;top=0;left=0;right=0;bottom=1;align=left;verticalAlign=middle;fillColor=none;spacingLeft=34;spacingRight=4;overflow=hidden;rotatable=0;points=[[0,0.5],[1,0.5]];portConstraint=eastwest;dropTarget=0;fontStyle=5;fontSize=12;" parent="pYY1f4qUFG_NNyWXXLFZ-134" vertex="1">
          <mxGeometry y="26" width="160" height="30" as="geometry" />
        </mxCell>
        <mxCell id="pYY1f4qUFG_NNyWXXLFZ-136" value="PK" style="shape=partialRectangle;top=0;left=0;bottom=0;fillColor=none;align=left;verticalAlign=middle;spacingLeft=4;spacingRight=4;overflow=hidden;rotatable=0;points=[];portConstraint=eastwest;part=1;fontSize=12;" parent="pYY1f4qUFG_NNyWXXLFZ-135" vertex="1" connectable="0">
          <mxGeometry width="30" height="30" as="geometry" />
        </mxCell>
        <mxCell id="pYY1f4qUFG_NNyWXXLFZ-139" value="..." style="shape=partialRectangle;top=0;left=0;right=0;bottom=0;align=left;verticalAlign=top;fillColor=none;spacingLeft=34;spacingRight=4;overflow=hidden;rotatable=0;points=[[0,0.5],[1,0.5]];portConstraint=eastwest;dropTarget=0;fontSize=12;" parent="pYY1f4qUFG_NNyWXXLFZ-134" vertex="1">
          <mxGeometry y="56" width="160" height="26" as="geometry" />
        </mxCell>
        <mxCell id="pYY1f4qUFG_NNyWXXLFZ-140" value="" style="shape=partialRectangle;top=0;left=0;bottom=0;fillColor=none;align=left;verticalAlign=top;spacingLeft=4;spacingRight=4;overflow=hidden;rotatable=0;points=[];portConstraint=eastwest;part=1;fontSize=12;" parent="pYY1f4qUFG_NNyWXXLFZ-139" vertex="1" connectable="0">
          <mxGeometry width="30" height="26" as="geometry" />
        </mxCell>
        <mxCell id="pYY1f4qUFG_NNyWXXLFZ-116" value="tb_InstrumentResults" style="swimlane;fontStyle=0;childLayout=stackLayout;horizontal=1;startSize=26;fillColor=#e0e0e0;horizontalStack=0;resizeParent=1;resizeParentMax=0;resizeLast=0;collapsible=1;marginBottom=0;swimlaneFillColor=#ffffff;align=center;fontSize=14;" parent="1" vertex="1">
          <mxGeometry x="270" y="438" width="260" height="82" as="geometry" />
        </mxCell>
        <mxCell id="pYY1f4qUFG_NNyWXXLFZ-117" value="Accessionno" style="shape=partialRectangle;top=0;left=0;right=0;bottom=1;align=left;verticalAlign=middle;fillColor=none;spacingLeft=34;spacingRight=4;overflow=hidden;rotatable=0;points=[[0,0.5],[1,0.5]];portConstraint=eastwest;dropTarget=0;fontStyle=5;fontSize=12;" parent="pYY1f4qUFG_NNyWXXLFZ-116" vertex="1">
          <mxGeometry y="26" width="260" height="30" as="geometry" />
        </mxCell>
        <mxCell id="pYY1f4qUFG_NNyWXXLFZ-118" value="FK" style="shape=partialRectangle;top=0;left=0;bottom=0;fillColor=none;align=left;verticalAlign=middle;spacingLeft=4;spacingRight=4;overflow=hidden;rotatable=0;points=[];portConstraint=eastwest;part=1;fontSize=12;" parent="pYY1f4qUFG_NNyWXXLFZ-117" vertex="1" connectable="0">
          <mxGeometry width="30" height="30" as="geometry" />
        </mxCell>
        <mxCell id="pYY1f4qUFG_NNyWXXLFZ-119" value="row 1" style="shape=partialRectangle;top=0;left=0;right=0;bottom=0;align=left;verticalAlign=top;fillColor=none;spacingLeft=34;spacingRight=4;overflow=hidden;rotatable=0;points=[[0,0.5],[1,0.5]];portConstraint=eastwest;dropTarget=0;fontSize=12;" parent="pYY1f4qUFG_NNyWXXLFZ-116" vertex="1">
          <mxGeometry y="56" width="260" height="26" as="geometry" />
        </mxCell>
        <mxCell id="pYY1f4qUFG_NNyWXXLFZ-120" value="..." style="shape=partialRectangle;top=0;left=0;bottom=0;fillColor=none;align=left;verticalAlign=top;spacingLeft=4;spacingRight=4;overflow=hidden;rotatable=0;points=[];portConstraint=eastwest;part=1;fontSize=12;" parent="pYY1f4qUFG_NNyWXXLFZ-119" vertex="1" connectable="0">
          <mxGeometry width="30" height="26" as="geometry" />
        </mxCell>
        <mxCell id="bgSJgyliavsBKh6PRGnk-1" value="&lt;font style=&quot;font-size: 24px&quot;&gt;Proposed Plate Reader RESTful API Workflow&lt;/font&gt;" style="text;html=1;align=center;verticalAlign=middle;resizable=0;points=[];autosize=1;" parent="1" vertex="1">
          <mxGeometry x="280" y="-310" width="510" height="20" as="geometry" />
        </mxCell>
        <mxCell id="pYY1f4qUFG_NNyWXXLFZ-83" value="tb_LabUser *use windows authenticaiton" style="swimlane;fontStyle=0;childLayout=stackLayout;horizontal=1;startSize=26;fillColor=#e0e0e0;horizontalStack=0;resizeParent=1;resizeParentMax=0;resizeLast=0;collapsible=1;marginBottom=0;swimlaneFillColor=#ffffff;align=center;fontSize=14;" parent="1" vertex="1">
          <mxGeometry x="30" y="-190" width="270" height="108" as="geometry" />
        </mxCell>
        <mxCell id="pYY1f4qUFG_NNyWXXLFZ-84" value="Username" style="shape=partialRectangle;top=0;left=0;right=0;bottom=1;align=left;verticalAlign=middle;fillColor=none;spacingLeft=34;spacingRight=4;overflow=hidden;rotatable=0;points=[[0,0.5],[1,0.5]];portConstraint=eastwest;dropTarget=0;fontStyle=5;fontSize=12;" parent="pYY1f4qUFG_NNyWXXLFZ-83" vertex="1">
          <mxGeometry y="26" width="270" height="30" as="geometry" />
        </mxCell>
        <mxCell id="pYY1f4qUFG_NNyWXXLFZ-85" value="PK" style="shape=partialRectangle;top=0;left=0;bottom=0;fillColor=none;align=left;verticalAlign=middle;spacingLeft=4;spacingRight=4;overflow=hidden;rotatable=0;points=[];portConstraint=eastwest;part=1;fontSize=12;" parent="pYY1f4qUFG_NNyWXXLFZ-84" vertex="1" connectable="0">
          <mxGeometry width="30" height="30" as="geometry" />
        </mxCell>
        <mxCell id="pYY1f4qUFG_NNyWXXLFZ-86" value="Interface" style="shape=partialRectangle;top=0;left=0;right=0;bottom=0;align=left;verticalAlign=top;fillColor=none;spacingLeft=34;spacingRight=4;overflow=hidden;rotatable=0;points=[[0,0.5],[1,0.5]];portConstraint=eastwest;dropTarget=0;fontSize=12;" parent="pYY1f4qUFG_NNyWXXLFZ-83" vertex="1">
          <mxGeometry y="56" width="270" height="26" as="geometry" />
        </mxCell>
        <mxCell id="pYY1f4qUFG_NNyWXXLFZ-87" value="" style="shape=partialRectangle;top=0;left=0;bottom=0;fillColor=none;align=left;verticalAlign=top;spacingLeft=4;spacingRight=4;overflow=hidden;rotatable=0;points=[];portConstraint=eastwest;part=1;fontSize=12;" parent="pYY1f4qUFG_NNyWXXLFZ-86" vertex="1" connectable="0">
          <mxGeometry width="30" height="26" as="geometry" />
        </mxCell>
        <mxCell id="bgSJgyliavsBKh6PRGnk-4" value="Level" style="shape=partialRectangle;top=0;left=0;right=0;bottom=0;align=left;verticalAlign=top;fillColor=none;spacingLeft=34;spacingRight=4;overflow=hidden;rotatable=0;points=[[0,0.5],[1,0.5]];portConstraint=eastwest;dropTarget=0;fontSize=12;" parent="pYY1f4qUFG_NNyWXXLFZ-83" vertex="1">
          <mxGeometry y="82" width="270" height="26" as="geometry" />
        </mxCell>
        <mxCell id="bgSJgyliavsBKh6PRGnk-5" value="" style="shape=partialRectangle;top=0;left=0;bottom=0;fillColor=none;align=left;verticalAlign=top;spacingLeft=4;spacingRight=4;overflow=hidden;rotatable=0;points=[];portConstraint=eastwest;part=1;fontSize=12;" parent="bgSJgyliavsBKh6PRGnk-4" vertex="1" connectable="0">
          <mxGeometry width="30" height="26" as="geometry" />
        </mxCell>
        <mxCell id="pYY1f4qUFG_NNyWXXLFZ-41" value="tb_AssayReferenceTable" style="swimlane;fontStyle=0;childLayout=stackLayout;horizontal=1;startSize=26;fillColor=#e0e0e0;horizontalStack=0;resizeParent=1;resizeParentMax=0;resizeLast=0;collapsible=1;marginBottom=0;swimlaneFillColor=#ffffff;align=center;fontSize=14;" parent="1" vertex="1">
          <mxGeometry x="40" y="170" width="220" height="186" as="geometry" />
        </mxCell>
        <mxCell id="pYY1f4qUFG_NNyWXXLFZ-42" value="Unitcode" style="shape=partialRectangle;top=0;left=0;right=0;bottom=1;align=left;verticalAlign=middle;fillColor=none;spacingLeft=34;spacingRight=4;overflow=hidden;rotatable=0;points=[[0,0.5],[1,0.5]];portConstraint=eastwest;dropTarget=0;fontStyle=5;fontSize=12;" parent="pYY1f4qUFG_NNyWXXLFZ-41" vertex="1">
          <mxGeometry y="26" width="220" height="30" as="geometry" />
        </mxCell>
        <mxCell id="pYY1f4qUFG_NNyWXXLFZ-43" value="PK" style="shape=partialRectangle;top=0;left=0;bottom=0;fillColor=none;align=left;verticalAlign=middle;spacingLeft=4;spacingRight=4;overflow=hidden;rotatable=0;points=[];portConstraint=eastwest;part=1;fontSize=12;" parent="pYY1f4qUFG_NNyWXXLFZ-42" vertex="1" connectable="0">
          <mxGeometry width="30" height="30" as="geometry" />
        </mxCell>
        <mxCell id="pYY1f4qUFG_NNyWXXLFZ-44" value="GroupCodeName" style="shape=partialRectangle;top=0;left=0;right=0;bottom=0;align=left;verticalAlign=top;fillColor=none;spacingLeft=34;spacingRight=4;overflow=hidden;rotatable=0;points=[[0,0.5],[1,0.5]];portConstraint=eastwest;dropTarget=0;fontSize=12;" parent="pYY1f4qUFG_NNyWXXLFZ-41" vertex="1">
          <mxGeometry y="56" width="220" height="26" as="geometry" />
        </mxCell>
        <mxCell id="pYY1f4qUFG_NNyWXXLFZ-45" value="" style="shape=partialRectangle;top=0;left=0;bottom=0;fillColor=none;align=left;verticalAlign=top;spacingLeft=4;spacingRight=4;overflow=hidden;rotatable=0;points=[];portConstraint=eastwest;part=1;fontSize=12;" parent="pYY1f4qUFG_NNyWXXLFZ-44" vertex="1" connectable="0">
          <mxGeometry width="30" height="26" as="geometry" />
        </mxCell>
        <mxCell id="pYY1f4qUFG_NNyWXXLFZ-46" value="UnitCodeName" style="shape=partialRectangle;top=0;left=0;right=0;bottom=0;align=left;verticalAlign=top;fillColor=none;spacingLeft=34;spacingRight=4;overflow=hidden;rotatable=0;points=[[0,0.5],[1,0.5]];portConstraint=eastwest;dropTarget=0;fontSize=12;" parent="pYY1f4qUFG_NNyWXXLFZ-41" vertex="1">
          <mxGeometry y="82" width="220" height="26" as="geometry" />
        </mxCell>
        <mxCell id="pYY1f4qUFG_NNyWXXLFZ-47" value="" style="shape=partialRectangle;top=0;left=0;bottom=0;fillColor=none;align=left;verticalAlign=top;spacingLeft=4;spacingRight=4;overflow=hidden;rotatable=0;points=[];portConstraint=eastwest;part=1;fontSize=12;" parent="pYY1f4qUFG_NNyWXXLFZ-46" vertex="1" connectable="0">
          <mxGeometry width="30" height="26" as="geometry" />
        </mxCell>
        <mxCell id="pYY1f4qUFG_NNyWXXLFZ-48" value="GroupCode" style="shape=partialRectangle;top=0;left=0;right=0;bottom=0;align=left;verticalAlign=top;fillColor=none;spacingLeft=34;spacingRight=4;overflow=hidden;rotatable=0;points=[[0,0.5],[1,0.5]];portConstraint=eastwest;dropTarget=0;fontSize=12;" parent="pYY1f4qUFG_NNyWXXLFZ-41" vertex="1">
          <mxGeometry y="108" width="220" height="26" as="geometry" />
        </mxCell>
        <mxCell id="pYY1f4qUFG_NNyWXXLFZ-49" value="" style="shape=partialRectangle;top=0;left=0;bottom=0;fillColor=none;align=left;verticalAlign=top;spacingLeft=4;spacingRight=4;overflow=hidden;rotatable=0;points=[];portConstraint=eastwest;part=1;fontSize=12;" parent="pYY1f4qUFG_NNyWXXLFZ-48" vertex="1" connectable="0">
          <mxGeometry width="30" height="26" as="geometry" />
        </mxCell>
        <mxCell id="pYY1f4qUFG_NNyWXXLFZ-54" value="UnitCode" style="shape=partialRectangle;top=0;left=0;right=0;bottom=0;align=left;verticalAlign=top;fillColor=none;spacingLeft=34;spacingRight=4;overflow=hidden;rotatable=0;points=[[0,0.5],[1,0.5]];portConstraint=eastwest;dropTarget=0;fontSize=12;" parent="pYY1f4qUFG_NNyWXXLFZ-41" vertex="1">
          <mxGeometry y="134" width="220" height="26" as="geometry" />
        </mxCell>
        <mxCell id="pYY1f4qUFG_NNyWXXLFZ-55" value="" style="shape=partialRectangle;top=0;left=0;bottom=0;fillColor=none;align=left;verticalAlign=top;spacingLeft=4;spacingRight=4;overflow=hidden;rotatable=0;points=[];portConstraint=eastwest;part=1;fontSize=12;" parent="pYY1f4qUFG_NNyWXXLFZ-54" vertex="1" connectable="0">
          <mxGeometry width="30" height="26" as="geometry" />
        </mxCell>
        <mxCell id="pYY1f4qUFG_NNyWXXLFZ-58" value="WorksheetID" style="shape=partialRectangle;top=0;left=0;right=0;bottom=0;align=left;verticalAlign=top;fillColor=none;spacingLeft=34;spacingRight=4;overflow=hidden;rotatable=0;points=[[0,0.5],[1,0.5]];portConstraint=eastwest;dropTarget=0;fontSize=12;" parent="pYY1f4qUFG_NNyWXXLFZ-41" vertex="1">
          <mxGeometry y="160" width="220" height="26" as="geometry" />
        </mxCell>
        <mxCell id="pYY1f4qUFG_NNyWXXLFZ-59" value="" style="shape=partialRectangle;top=0;left=0;bottom=0;fillColor=none;align=left;verticalAlign=top;spacingLeft=4;spacingRight=4;overflow=hidden;rotatable=0;points=[];portConstraint=eastwest;part=1;fontSize=12;" parent="pYY1f4qUFG_NNyWXXLFZ-58" vertex="1" connectable="0">
          <mxGeometry width="30" height="26" as="geometry" />
        </mxCell>
      </root>
    </mxGraphModel>
  </diagram>
  <diagram name="EntityDiagram" id="yE4E-0Hg0SjzUTYuSR8L">
    <mxGraphModel dx="2062" dy="1154" grid="1" gridSize="10" guides="1" tooltips="1" connect="1" arrows="1" fold="1" page="1" pageScale="1" pageWidth="850" pageHeight="1100" math="0" shadow="0">
      <root>
        <mxCell id="R3DRoGVKzv257i6CzAVX-0" />
        <mxCell id="R3DRoGVKzv257i6CzAVX-1" parent="R3DRoGVKzv257i6CzAVX-0" />
        <mxCell id="nLBCm-IGoWQIaIIdfdnN-44" value="MS SQL Server 2015 Database Schema" style="text;html=1;strokeColor=none;fillColor=none;align=center;verticalAlign=middle;whiteSpace=wrap;rounded=0;" parent="R3DRoGVKzv257i6CzAVX-1" vertex="1">
          <mxGeometry x="170" y="10" width="200" height="20" as="geometry" />
        </mxCell>
        <mxCell id="TNG_Kt_aU6NNvcIOm_7D-22" value="MS SQL Server 2000 Database Schema" style="text;html=1;strokeColor=none;fillColor=none;align=center;verticalAlign=middle;whiteSpace=wrap;rounded=0;" parent="R3DRoGVKzv257i6CzAVX-1" vertex="1">
          <mxGeometry x="620" y="10" width="200" height="20" as="geometry" />
        </mxCell>
        <mxCell id="nLBCm-IGoWQIaIIdfdnN-13" value="interface" style="swimlane;fontStyle=0;childLayout=stackLayout;horizontal=1;startSize=26;fillColor=#e0e0e0;horizontalStack=0;resizeParent=1;resizeParentMax=0;resizeLast=0;collapsible=1;marginBottom=0;swimlaneFillColor=#ffffff;align=center;fontSize=14;" parent="R3DRoGVKzv257i6CzAVX-1" vertex="1">
          <mxGeometry x="330" y="80" width="180" height="112" as="geometry" />
        </mxCell>
        <mxCell id="nLBCm-IGoWQIaIIdfdnN-14" value="id" style="shape=partialRectangle;top=0;left=0;right=0;bottom=1;align=left;verticalAlign=middle;fillColor=none;spacingLeft=34;spacingRight=4;overflow=hidden;rotatable=0;points=[[0,0.5],[1,0.5]];portConstraint=eastwest;dropTarget=0;fontStyle=5;fontSize=12;" parent="nLBCm-IGoWQIaIIdfdnN-13" vertex="1">
          <mxGeometry y="26" width="180" height="30" as="geometry" />
        </mxCell>
        <mxCell id="nLBCm-IGoWQIaIIdfdnN-15" value="PK" style="shape=partialRectangle;top=0;left=0;bottom=0;fillColor=none;align=left;verticalAlign=middle;spacingLeft=4;spacingRight=4;overflow=hidden;rotatable=0;points=[];portConstraint=eastwest;part=1;fontSize=12;" parent="nLBCm-IGoWQIaIIdfdnN-14" vertex="1" connectable="0">
          <mxGeometry width="30" height="30" as="geometry" />
        </mxCell>
        <mxCell id="nLBCm-IGoWQIaIIdfdnN-45" value="name" style="shape=partialRectangle;top=0;left=0;right=0;bottom=1;align=left;verticalAlign=middle;fillColor=none;spacingLeft=34;spacingRight=4;overflow=hidden;rotatable=0;points=[[0,0.5],[1,0.5]];portConstraint=eastwest;dropTarget=0;fontStyle=5;fontSize=12;" parent="nLBCm-IGoWQIaIIdfdnN-13" vertex="1">
          <mxGeometry y="56" width="180" height="30" as="geometry" />
        </mxCell>
        <mxCell id="nLBCm-IGoWQIaIIdfdnN-46" value="PK" style="shape=partialRectangle;top=0;left=0;bottom=0;fillColor=none;align=left;verticalAlign=middle;spacingLeft=4;spacingRight=4;overflow=hidden;rotatable=0;points=[];portConstraint=eastwest;part=1;fontSize=12;" parent="nLBCm-IGoWQIaIIdfdnN-45" vertex="1" connectable="0">
          <mxGeometry width="30" height="30" as="geometry" />
        </mxCell>
        <mxCell id="nLBCm-IGoWQIaIIdfdnN-20" value="dateadded" style="shape=partialRectangle;top=0;left=0;right=0;bottom=0;align=left;verticalAlign=top;fillColor=none;spacingLeft=34;spacingRight=4;overflow=hidden;rotatable=0;points=[[0,0.5],[1,0.5]];portConstraint=eastwest;dropTarget=0;fontSize=12;" parent="nLBCm-IGoWQIaIIdfdnN-13" vertex="1">
          <mxGeometry y="86" width="180" height="26" as="geometry" />
        </mxCell>
        <mxCell id="nLBCm-IGoWQIaIIdfdnN-21" value="" style="shape=partialRectangle;top=0;left=0;bottom=0;fillColor=none;align=left;verticalAlign=top;spacingLeft=4;spacingRight=4;overflow=hidden;rotatable=0;points=[];portConstraint=eastwest;part=1;fontSize=12;" parent="nLBCm-IGoWQIaIIdfdnN-20" vertex="1" connectable="0">
          <mxGeometry width="30" height="26" as="geometry" />
        </mxCell>
        <mxCell id="nLBCm-IGoWQIaIIdfdnN-31" value="permission" style="swimlane;fontStyle=0;childLayout=stackLayout;horizontal=1;startSize=26;fillColor=#e0e0e0;horizontalStack=0;resizeParent=1;resizeParentMax=0;resizeLast=0;collapsible=1;marginBottom=0;swimlaneFillColor=#ffffff;align=center;fontSize=14;" parent="R3DRoGVKzv257i6CzAVX-1" vertex="1">
          <mxGeometry x="60" y="110" width="180" height="160" as="geometry" />
        </mxCell>
        <mxCell id="nLBCm-IGoWQIaIIdfdnN-32" value="id" style="shape=partialRectangle;top=0;left=0;right=0;bottom=1;align=left;verticalAlign=middle;fillColor=none;spacingLeft=34;spacingRight=4;overflow=hidden;rotatable=0;points=[[0,0.5],[1,0.5]];portConstraint=eastwest;dropTarget=0;fontStyle=5;fontSize=12;" parent="nLBCm-IGoWQIaIIdfdnN-31" vertex="1">
          <mxGeometry y="26" width="180" height="30" as="geometry" />
        </mxCell>
        <mxCell id="nLBCm-IGoWQIaIIdfdnN-33" value="PK" style="shape=partialRectangle;top=0;left=0;bottom=0;fillColor=none;align=left;verticalAlign=middle;spacingLeft=4;spacingRight=4;overflow=hidden;rotatable=0;points=[];portConstraint=eastwest;part=1;fontSize=12;" parent="nLBCm-IGoWQIaIIdfdnN-32" vertex="1" connectable="0">
          <mxGeometry width="30" height="30" as="geometry" />
        </mxCell>
        <mxCell id="nLBCm-IGoWQIaIIdfdnN-42" value="username" style="shape=partialRectangle;top=0;left=0;right=0;bottom=0;align=left;verticalAlign=top;fillColor=none;spacingLeft=34;spacingRight=4;overflow=hidden;rotatable=0;points=[[0,0.5],[1,0.5]];portConstraint=eastwest;dropTarget=0;fontSize=12;" parent="nLBCm-IGoWQIaIIdfdnN-31" vertex="1">
          <mxGeometry y="56" width="180" height="26" as="geometry" />
        </mxCell>
        <mxCell id="nLBCm-IGoWQIaIIdfdnN-43" value="" style="shape=partialRectangle;top=0;left=0;bottom=0;fillColor=none;align=left;verticalAlign=top;spacingLeft=4;spacingRight=4;overflow=hidden;rotatable=0;points=[];portConstraint=eastwest;part=1;fontSize=12;" parent="nLBCm-IGoWQIaIIdfdnN-42" vertex="1" connectable="0">
          <mxGeometry width="30" height="26" as="geometry" />
        </mxCell>
        <mxCell id="nLBCm-IGoWQIaIIdfdnN-34" value="interfaceid" style="shape=partialRectangle;top=0;left=0;right=0;bottom=0;align=left;verticalAlign=top;fillColor=none;spacingLeft=34;spacingRight=4;overflow=hidden;rotatable=0;points=[[0,0.5],[1,0.5]];portConstraint=eastwest;dropTarget=0;fontSize=12;" parent="nLBCm-IGoWQIaIIdfdnN-31" vertex="1">
          <mxGeometry y="82" width="180" height="26" as="geometry" />
        </mxCell>
        <mxCell id="nLBCm-IGoWQIaIIdfdnN-35" value="" style="shape=partialRectangle;top=0;left=0;bottom=0;fillColor=none;align=left;verticalAlign=top;spacingLeft=4;spacingRight=4;overflow=hidden;rotatable=0;points=[];portConstraint=eastwest;part=1;fontSize=12;" parent="nLBCm-IGoWQIaIIdfdnN-34" vertex="1" connectable="0">
          <mxGeometry width="30" height="26" as="geometry" />
        </mxCell>
        <mxCell id="nLBCm-IGoWQIaIIdfdnN-36" value="roleid" style="shape=partialRectangle;top=0;left=0;right=0;bottom=0;align=left;verticalAlign=top;fillColor=none;spacingLeft=34;spacingRight=4;overflow=hidden;rotatable=0;points=[[0,0.5],[1,0.5]];portConstraint=eastwest;dropTarget=0;fontSize=12;" parent="nLBCm-IGoWQIaIIdfdnN-31" vertex="1">
          <mxGeometry y="108" width="180" height="26" as="geometry" />
        </mxCell>
        <mxCell id="nLBCm-IGoWQIaIIdfdnN-37" value="" style="shape=partialRectangle;top=0;left=0;bottom=0;fillColor=none;align=left;verticalAlign=top;spacingLeft=4;spacingRight=4;overflow=hidden;rotatable=0;points=[];portConstraint=eastwest;part=1;fontSize=12;" parent="nLBCm-IGoWQIaIIdfdnN-36" vertex="1" connectable="0">
          <mxGeometry width="30" height="26" as="geometry" />
        </mxCell>
        <mxCell id="nLBCm-IGoWQIaIIdfdnN-38" value="dateadded" style="shape=partialRectangle;top=0;left=0;right=0;bottom=0;align=left;verticalAlign=top;fillColor=none;spacingLeft=34;spacingRight=4;overflow=hidden;rotatable=0;points=[[0,0.5],[1,0.5]];portConstraint=eastwest;dropTarget=0;fontSize=12;" parent="nLBCm-IGoWQIaIIdfdnN-31" vertex="1">
          <mxGeometry y="134" width="180" height="26" as="geometry" />
        </mxCell>
        <mxCell id="nLBCm-IGoWQIaIIdfdnN-39" value="" style="shape=partialRectangle;top=0;left=0;bottom=0;fillColor=none;align=left;verticalAlign=top;spacingLeft=4;spacingRight=4;overflow=hidden;rotatable=0;points=[];portConstraint=eastwest;part=1;fontSize=12;" parent="nLBCm-IGoWQIaIIdfdnN-38" vertex="1" connectable="0">
          <mxGeometry width="30" height="26" as="geometry" />
        </mxCell>
        <mxCell id="TNG_Kt_aU6NNvcIOm_7D-23" value="SJCInterfaces" style="text;html=1;align=center;verticalAlign=middle;resizable=0;points=[];autosize=1;" parent="R3DRoGVKzv257i6CzAVX-1" vertex="1">
          <mxGeometry x="225" y="50" width="90" height="20" as="geometry" />
        </mxCell>
        <mxCell id="TNG_Kt_aU6NNvcIOm_7D-0" value="tb_PatientResult (tb_result)" style="swimlane;fontStyle=0;childLayout=stackLayout;horizontal=1;startSize=26;fillColor=#e0e0e0;horizontalStack=0;resizeParent=1;resizeParentMax=0;resizeLast=0;collapsible=1;marginBottom=0;swimlaneFillColor=#ffffff;align=center;fontSize=14;" parent="R3DRoGVKzv257i6CzAVX-1" vertex="1">
          <mxGeometry x="630" y="80" width="190" height="506" as="geometry" />
        </mxCell>
        <mxCell id="TNG_Kt_aU6NNvcIOm_7D-1" value="AccessionNo" style="shape=partialRectangle;top=0;left=0;right=0;bottom=1;align=left;verticalAlign=middle;fillColor=none;spacingLeft=34;spacingRight=4;overflow=hidden;rotatable=0;points=[[0,0.5],[1,0.5]];portConstraint=eastwest;dropTarget=0;fontStyle=5;fontSize=12;" parent="TNG_Kt_aU6NNvcIOm_7D-0" vertex="1">
          <mxGeometry y="26" width="190" height="30" as="geometry" />
        </mxCell>
        <mxCell id="TNG_Kt_aU6NNvcIOm_7D-2" value="PK" style="shape=partialRectangle;top=0;left=0;bottom=0;fillColor=none;align=left;verticalAlign=middle;spacingLeft=4;spacingRight=4;overflow=hidden;rotatable=0;points=[];portConstraint=eastwest;part=1;fontSize=12;" parent="TNG_Kt_aU6NNvcIOm_7D-1" vertex="1" connectable="0">
          <mxGeometry width="30" height="30" as="geometry" />
        </mxCell>
        <mxCell id="TNG_Kt_aU6NNvcIOm_7D-3" value="WorksheetNo" style="shape=partialRectangle;top=0;left=0;right=0;bottom=1;align=left;verticalAlign=middle;fillColor=none;spacingLeft=34;spacingRight=4;overflow=hidden;rotatable=0;points=[[0,0.5],[1,0.5]];portConstraint=eastwest;dropTarget=0;fontStyle=4;fontSize=12;" parent="TNG_Kt_aU6NNvcIOm_7D-0" vertex="1">
          <mxGeometry y="56" width="190" height="30" as="geometry" />
        </mxCell>
        <mxCell id="TNG_Kt_aU6NNvcIOm_7D-4" value="PK" style="shape=partialRectangle;top=0;left=0;bottom=0;fillColor=none;align=left;verticalAlign=middle;spacingLeft=4;spacingRight=4;overflow=hidden;rotatable=0;points=[];portConstraint=eastwest;part=1;fontSize=12;" parent="TNG_Kt_aU6NNvcIOm_7D-3" vertex="1" connectable="0">
          <mxGeometry width="30" height="30" as="geometry" />
        </mxCell>
        <mxCell id="TNG_Kt_aU6NNvcIOm_7D-5" value="Unitcode" style="shape=partialRectangle;top=0;left=0;right=0;bottom=1;align=left;verticalAlign=middle;fillColor=none;spacingLeft=34;spacingRight=4;overflow=hidden;rotatable=0;points=[[0,0.5],[1,0.5]];portConstraint=eastwest;dropTarget=0;fontStyle=4;fontSize=12;" parent="TNG_Kt_aU6NNvcIOm_7D-0" vertex="1">
          <mxGeometry y="86" width="190" height="30" as="geometry" />
        </mxCell>
        <mxCell id="TNG_Kt_aU6NNvcIOm_7D-6" value="PK" style="shape=partialRectangle;top=0;left=0;bottom=0;fillColor=none;align=left;verticalAlign=middle;spacingLeft=4;spacingRight=4;overflow=hidden;rotatable=0;points=[];portConstraint=eastwest;part=1;fontSize=12;" parent="TNG_Kt_aU6NNvcIOm_7D-5" vertex="1" connectable="0">
          <mxGeometry width="30" height="30" as="geometry" />
        </mxCell>
        <mxCell id="TNG_Kt_aU6NNvcIOm_7D-7" value="AnalytePos" style="text;strokeColor=none;fillColor=none;spacingLeft=4;spacingRight=4;overflow=hidden;rotatable=0;points=[[0,0.5],[1,0.5]];portConstraint=eastwest;fontSize=12;fontStyle=1" parent="TNG_Kt_aU6NNvcIOm_7D-0" vertex="1">
          <mxGeometry y="116" width="190" height="26" as="geometry" />
        </mxCell>
        <mxCell id="TNG_Kt_aU6NNvcIOm_7D-8" value="Phase" style="text;strokeColor=none;fillColor=none;spacingLeft=4;spacingRight=4;overflow=hidden;rotatable=0;points=[[0,0.5],[1,0.5]];portConstraint=eastwest;fontSize=12;" parent="TNG_Kt_aU6NNvcIOm_7D-0" vertex="1">
          <mxGeometry y="142" width="190" height="26" as="geometry" />
        </mxCell>
        <mxCell id="TNG_Kt_aU6NNvcIOm_7D-9" value="GroupNo" style="text;strokeColor=none;fillColor=none;spacingLeft=4;spacingRight=4;overflow=hidden;rotatable=0;points=[[0,0.5],[1,0.5]];portConstraint=eastwest;fontSize=12;" parent="TNG_Kt_aU6NNvcIOm_7D-0" vertex="1">
          <mxGeometry y="168" width="190" height="26" as="geometry" />
        </mxCell>
        <mxCell id="TNG_Kt_aU6NNvcIOm_7D-10" value="Result" style="text;strokeColor=none;fillColor=none;spacingLeft=4;spacingRight=4;overflow=hidden;rotatable=0;points=[[0,0.5],[1,0.5]];portConstraint=eastwest;fontSize=12;" parent="TNG_Kt_aU6NNvcIOm_7D-0" vertex="1">
          <mxGeometry y="194" width="190" height="26" as="geometry" />
        </mxCell>
        <mxCell id="TNG_Kt_aU6NNvcIOm_7D-11" value="Previous Result" style="text;strokeColor=none;fillColor=none;spacingLeft=4;spacingRight=4;overflow=hidden;rotatable=0;points=[[0,0.5],[1,0.5]];portConstraint=eastwest;fontSize=12;" parent="TNG_Kt_aU6NNvcIOm_7D-0" vertex="1">
          <mxGeometry y="220" width="190" height="26" as="geometry" />
        </mxCell>
        <mxCell id="TNG_Kt_aU6NNvcIOm_7D-12" value="WorksheetNo" style="text;strokeColor=none;fillColor=none;spacingLeft=4;spacingRight=4;overflow=hidden;rotatable=0;points=[[0,0.5],[1,0.5]];portConstraint=eastwest;fontSize=12;" parent="TNG_Kt_aU6NNvcIOm_7D-0" vertex="1">
          <mxGeometry y="246" width="190" height="26" as="geometry" />
        </mxCell>
        <mxCell id="TNG_Kt_aU6NNvcIOm_7D-13" value="Phase" style="text;strokeColor=none;fillColor=none;spacingLeft=4;spacingRight=4;overflow=hidden;rotatable=0;points=[[0,0.5],[1,0.5]];portConstraint=eastwest;fontSize=12;" parent="TNG_Kt_aU6NNvcIOm_7D-0" vertex="1">
          <mxGeometry y="272" width="190" height="26" as="geometry" />
        </mxCell>
        <mxCell id="TNG_Kt_aU6NNvcIOm_7D-14" value="Status" style="text;strokeColor=none;fillColor=none;spacingLeft=4;spacingRight=4;overflow=hidden;rotatable=0;points=[[0,0.5],[1,0.5]];portConstraint=eastwest;fontSize=12;" parent="TNG_Kt_aU6NNvcIOm_7D-0" vertex="1">
          <mxGeometry y="298" width="190" height="26" as="geometry" />
        </mxCell>
        <mxCell id="TNG_Kt_aU6NNvcIOm_7D-15" value="CannedComment" style="text;strokeColor=none;fillColor=none;spacingLeft=4;spacingRight=4;overflow=hidden;rotatable=0;points=[[0,0.5],[1,0.5]];portConstraint=eastwest;fontSize=12;" parent="TNG_Kt_aU6NNvcIOm_7D-0" vertex="1">
          <mxGeometry y="324" width="190" height="26" as="geometry" />
        </mxCell>
        <mxCell id="TNG_Kt_aU6NNvcIOm_7D-16" value="TextComments" style="text;strokeColor=none;fillColor=none;spacingLeft=4;spacingRight=4;overflow=hidden;rotatable=0;points=[[0,0.5],[1,0.5]];portConstraint=eastwest;fontSize=12;" parent="TNG_Kt_aU6NNvcIOm_7D-0" vertex="1">
          <mxGeometry y="350" width="190" height="26" as="geometry" />
        </mxCell>
        <mxCell id="TNG_Kt_aU6NNvcIOm_7D-17" value="Aliquot" style="text;strokeColor=none;fillColor=none;spacingLeft=4;spacingRight=4;overflow=hidden;rotatable=0;points=[[0,0.5],[1,0.5]];portConstraint=eastwest;fontSize=12;" parent="TNG_Kt_aU6NNvcIOm_7D-0" vertex="1">
          <mxGeometry y="376" width="190" height="26" as="geometry" />
        </mxCell>
        <mxCell id="TNG_Kt_aU6NNvcIOm_7D-18" value="AliquotNo" style="text;strokeColor=none;fillColor=none;spacingLeft=4;spacingRight=4;overflow=hidden;rotatable=0;points=[[0,0.5],[1,0.5]];portConstraint=eastwest;fontSize=12;fontStyle=1" parent="TNG_Kt_aU6NNvcIOm_7D-0" vertex="1">
          <mxGeometry y="402" width="190" height="26" as="geometry" />
        </mxCell>
        <mxCell id="TNG_Kt_aU6NNvcIOm_7D-19" value="RackSequence" style="text;strokeColor=none;fillColor=none;spacingLeft=4;spacingRight=4;overflow=hidden;rotatable=0;points=[[0,0.5],[1,0.5]];portConstraint=eastwest;fontSize=12;" parent="TNG_Kt_aU6NNvcIOm_7D-0" vertex="1">
          <mxGeometry y="428" width="190" height="26" as="geometry" />
        </mxCell>
        <mxCell id="TNG_Kt_aU6NNvcIOm_7D-20" value="HostAanlyteCode" style="text;strokeColor=none;fillColor=none;spacingLeft=4;spacingRight=4;overflow=hidden;rotatable=0;points=[[0,0.5],[1,0.5]];portConstraint=eastwest;fontSize=12;" parent="TNG_Kt_aU6NNvcIOm_7D-0" vertex="1">
          <mxGeometry y="454" width="190" height="26" as="geometry" />
        </mxCell>
        <mxCell id="TNG_Kt_aU6NNvcIOm_7D-21" value="HostAnalyteMnemonic" style="text;strokeColor=none;fillColor=none;spacingLeft=4;spacingRight=4;overflow=hidden;rotatable=0;points=[[0,0.5],[1,0.5]];portConstraint=eastwest;fontSize=12;" parent="TNG_Kt_aU6NNvcIOm_7D-0" vertex="1">
          <mxGeometry y="480" width="190" height="26" as="geometry" />
        </mxCell>
        <mxCell id="TNG_Kt_aU6NNvcIOm_7D-24" value="lps_p07" style="text;html=1;align=center;verticalAlign=middle;resizable=0;points=[];autosize=1;" parent="R3DRoGVKzv257i6CzAVX-1" vertex="1">
          <mxGeometry x="690" y="50" width="60" height="20" as="geometry" />
        </mxCell>
        <mxCell id="nLBCm-IGoWQIaIIdfdnN-4" value="role" style="swimlane;fontStyle=0;childLayout=stackLayout;horizontal=1;startSize=26;fillColor=#e0e0e0;horizontalStack=0;resizeParent=1;resizeParentMax=0;resizeLast=0;collapsible=1;marginBottom=0;swimlaneFillColor=#ffffff;align=center;fontSize=14;" parent="R3DRoGVKzv257i6CzAVX-1" vertex="1">
          <mxGeometry x="330" y="240" width="180" height="86" as="geometry" />
        </mxCell>
        <mxCell id="nLBCm-IGoWQIaIIdfdnN-5" value="id" style="shape=partialRectangle;top=0;left=0;right=0;bottom=1;align=left;verticalAlign=middle;fillColor=none;spacingLeft=34;spacingRight=4;overflow=hidden;rotatable=0;points=[[0,0.5],[1,0.5]];portConstraint=eastwest;dropTarget=0;fontStyle=5;fontSize=12;" parent="nLBCm-IGoWQIaIIdfdnN-4" vertex="1">
          <mxGeometry y="26" width="180" height="34" as="geometry" />
        </mxCell>
        <mxCell id="nLBCm-IGoWQIaIIdfdnN-6" value="PK" style="shape=partialRectangle;top=0;left=0;bottom=0;fillColor=none;align=left;verticalAlign=middle;spacingLeft=4;spacingRight=4;overflow=hidden;rotatable=0;points=[];portConstraint=eastwest;part=1;fontSize=12;" parent="nLBCm-IGoWQIaIIdfdnN-5" vertex="1" connectable="0">
          <mxGeometry width="30" height="34" as="geometry" />
        </mxCell>
        <mxCell id="nLBCm-IGoWQIaIIdfdnN-7" value="name" style="shape=partialRectangle;top=0;left=0;right=0;bottom=0;align=left;verticalAlign=top;fillColor=none;spacingLeft=34;spacingRight=4;overflow=hidden;rotatable=0;points=[[0,0.5],[1,0.5]];portConstraint=eastwest;dropTarget=0;fontSize=12;" parent="nLBCm-IGoWQIaIIdfdnN-4" vertex="1">
          <mxGeometry y="60" width="180" height="26" as="geometry" />
        </mxCell>
        <mxCell id="nLBCm-IGoWQIaIIdfdnN-8" value="" style="shape=partialRectangle;top=0;left=0;bottom=0;fillColor=none;align=left;verticalAlign=top;spacingLeft=4;spacingRight=4;overflow=hidden;rotatable=0;points=[];portConstraint=eastwest;part=1;fontSize=12;" parent="nLBCm-IGoWQIaIIdfdnN-7" vertex="1" connectable="0">
          <mxGeometry width="30" height="26" as="geometry" />
        </mxCell>
        <mxCell id="C9yZFYH4_JPwOJMf6Hxi-22" style="edgeStyle=orthogonalEdgeStyle;rounded=0;orthogonalLoop=1;jettySize=auto;html=1;entryX=0;entryY=0.5;entryDx=0;entryDy=0;exitX=1;exitY=0.5;exitDx=0;exitDy=0;" parent="R3DRoGVKzv257i6CzAVX-1" source="1j8pfAbaeB9nWyxGAaxb-9" target="C9yZFYH4_JPwOJMf6Hxi-3" edge="1">
          <mxGeometry relative="1" as="geometry" />
        </mxCell>
        <object label="buildplate" id="1j8pfAbaeB9nWyxGAaxb-0">
          <mxCell style="swimlane;fontStyle=0;childLayout=stackLayout;horizontal=1;startSize=26;fillColor=#e0e0e0;horizontalStack=0;resizeParent=1;resizeParentMax=0;resizeLast=0;collapsible=1;marginBottom=0;swimlaneFillColor=#ffffff;align=center;fontSize=14;" parent="R3DRoGVKzv257i6CzAVX-1" vertex="1">
            <mxGeometry x="90" y="360" width="180" height="342" as="geometry" />
          </mxCell>
        </object>
        <mxCell id="1j8pfAbaeB9nWyxGAaxb-1" value="id" style="shape=partialRectangle;top=0;left=0;right=0;bottom=1;align=left;verticalAlign=middle;fillColor=none;spacingLeft=34;spacingRight=4;overflow=hidden;rotatable=0;points=[[0,0.5],[1,0.5]];portConstraint=eastwest;dropTarget=0;fontStyle=5;fontSize=12;" parent="1j8pfAbaeB9nWyxGAaxb-0" vertex="1">
          <mxGeometry y="26" width="180" height="30" as="geometry" />
        </mxCell>
        <mxCell id="1j8pfAbaeB9nWyxGAaxb-2" value="PK" style="shape=partialRectangle;top=0;left=0;bottom=0;fillColor=none;align=left;verticalAlign=middle;spacingLeft=4;spacingRight=4;overflow=hidden;rotatable=0;points=[];portConstraint=eastwest;part=1;fontSize=12;" parent="1j8pfAbaeB9nWyxGAaxb-1" vertex="1" connectable="0">
          <mxGeometry width="30" height="30" as="geometry" />
        </mxCell>
        <mxCell id="1j8pfAbaeB9nWyxGAaxb-3" value="Well" style="shape=partialRectangle;top=0;left=0;right=0;bottom=0;align=left;verticalAlign=top;fillColor=none;spacingLeft=34;spacingRight=4;overflow=hidden;rotatable=0;points=[[0,0.5],[1,0.5]];portConstraint=eastwest;dropTarget=0;fontSize=12;" parent="1j8pfAbaeB9nWyxGAaxb-0" vertex="1">
          <mxGeometry y="56" width="180" height="26" as="geometry" />
        </mxCell>
        <mxCell id="1j8pfAbaeB9nWyxGAaxb-4" value="" style="shape=partialRectangle;top=0;left=0;bottom=0;fillColor=none;align=left;verticalAlign=top;spacingLeft=4;spacingRight=4;overflow=hidden;rotatable=0;points=[];portConstraint=eastwest;part=1;fontSize=12;" parent="1j8pfAbaeB9nWyxGAaxb-3" vertex="1" connectable="0">
          <mxGeometry width="30" height="26" as="geometry" />
        </mxCell>
        <mxCell id="1j8pfAbaeB9nWyxGAaxb-5" value="Sequence" style="shape=partialRectangle;top=0;left=0;right=0;bottom=0;align=left;verticalAlign=top;fillColor=none;spacingLeft=34;spacingRight=4;overflow=hidden;rotatable=0;points=[[0,0.5],[1,0.5]];portConstraint=eastwest;dropTarget=0;fontSize=12;" parent="1j8pfAbaeB9nWyxGAaxb-0" vertex="1">
          <mxGeometry y="82" width="180" height="26" as="geometry" />
        </mxCell>
        <mxCell id="1j8pfAbaeB9nWyxGAaxb-6" value="" style="shape=partialRectangle;top=0;left=0;bottom=0;fillColor=none;align=left;verticalAlign=top;spacingLeft=4;spacingRight=4;overflow=hidden;rotatable=0;points=[];portConstraint=eastwest;part=1;fontSize=12;" parent="1j8pfAbaeB9nWyxGAaxb-5" vertex="1" connectable="0">
          <mxGeometry width="30" height="26" as="geometry" />
        </mxCell>
        <mxCell id="1j8pfAbaeB9nWyxGAaxb-7" value="Type" style="shape=partialRectangle;top=0;left=0;right=0;bottom=0;align=left;verticalAlign=top;fillColor=none;spacingLeft=34;spacingRight=4;overflow=hidden;rotatable=0;points=[[0,0.5],[1,0.5]];portConstraint=eastwest;dropTarget=0;fontSize=12;" parent="1j8pfAbaeB9nWyxGAaxb-0" vertex="1">
          <mxGeometry y="108" width="180" height="26" as="geometry" />
        </mxCell>
        <mxCell id="1j8pfAbaeB9nWyxGAaxb-8" value="" style="shape=partialRectangle;top=0;left=0;bottom=0;fillColor=none;align=left;verticalAlign=top;spacingLeft=4;spacingRight=4;overflow=hidden;rotatable=0;points=[];portConstraint=eastwest;part=1;fontSize=12;" parent="1j8pfAbaeB9nWyxGAaxb-7" vertex="1" connectable="0">
          <mxGeometry width="30" height="26" as="geometry" />
        </mxCell>
        <mxCell id="1j8pfAbaeB9nWyxGAaxb-9" value="WS&#xa;" style="shape=partialRectangle;top=0;left=0;right=0;bottom=0;align=left;verticalAlign=top;fillColor=none;spacingLeft=34;spacingRight=4;overflow=hidden;rotatable=0;points=[[0,0.5],[1,0.5]];portConstraint=eastwest;dropTarget=0;fontSize=12;" parent="1j8pfAbaeB9nWyxGAaxb-0" vertex="1">
          <mxGeometry y="134" width="180" height="26" as="geometry" />
        </mxCell>
        <mxCell id="1j8pfAbaeB9nWyxGAaxb-10" value="" style="shape=partialRectangle;top=0;left=0;bottom=0;fillColor=none;align=left;verticalAlign=top;spacingLeft=4;spacingRight=4;overflow=hidden;rotatable=0;points=[];portConstraint=eastwest;part=1;fontSize=12;" parent="1j8pfAbaeB9nWyxGAaxb-9" vertex="1" connectable="0">
          <mxGeometry width="30" height="26" as="geometry" />
        </mxCell>
        <mxCell id="1j8pfAbaeB9nWyxGAaxb-22" value="Accession" style="shape=partialRectangle;top=0;left=0;right=0;bottom=0;align=left;verticalAlign=top;fillColor=none;spacingLeft=34;spacingRight=4;overflow=hidden;rotatable=0;points=[[0,0.5],[1,0.5]];portConstraint=eastwest;dropTarget=0;fontSize=12;" parent="1j8pfAbaeB9nWyxGAaxb-0" vertex="1">
          <mxGeometry y="160" width="180" height="26" as="geometry" />
        </mxCell>
        <mxCell id="1j8pfAbaeB9nWyxGAaxb-23" value="" style="shape=partialRectangle;top=0;left=0;bottom=0;fillColor=none;align=left;verticalAlign=top;spacingLeft=4;spacingRight=4;overflow=hidden;rotatable=0;points=[];portConstraint=eastwest;part=1;fontSize=12;" parent="1j8pfAbaeB9nWyxGAaxb-22" vertex="1" connectable="0">
          <mxGeometry width="30" height="26" as="geometry" />
        </mxCell>
        <mxCell id="1j8pfAbaeB9nWyxGAaxb-24" value="Name" style="shape=partialRectangle;top=0;left=0;right=0;bottom=0;align=left;verticalAlign=top;fillColor=none;spacingLeft=34;spacingRight=4;overflow=hidden;rotatable=0;points=[[0,0.5],[1,0.5]];portConstraint=eastwest;dropTarget=0;fontSize=12;" parent="1j8pfAbaeB9nWyxGAaxb-0" vertex="1">
          <mxGeometry y="186" width="180" height="26" as="geometry" />
        </mxCell>
        <mxCell id="1j8pfAbaeB9nWyxGAaxb-25" value="" style="shape=partialRectangle;top=0;left=0;bottom=0;fillColor=none;align=left;verticalAlign=top;spacingLeft=4;spacingRight=4;overflow=hidden;rotatable=0;points=[];portConstraint=eastwest;part=1;fontSize=12;" parent="1j8pfAbaeB9nWyxGAaxb-24" vertex="1" connectable="0">
          <mxGeometry width="30" height="26" as="geometry" />
        </mxCell>
        <mxCell id="1j8pfAbaeB9nWyxGAaxb-26" value="AnalytePos" style="shape=partialRectangle;top=0;left=0;right=0;bottom=0;align=left;verticalAlign=top;fillColor=none;spacingLeft=34;spacingRight=4;overflow=hidden;rotatable=0;points=[[0,0.5],[1,0.5]];portConstraint=eastwest;dropTarget=0;fontSize=12;" parent="1j8pfAbaeB9nWyxGAaxb-0" vertex="1">
          <mxGeometry y="212" width="180" height="26" as="geometry" />
        </mxCell>
        <mxCell id="1j8pfAbaeB9nWyxGAaxb-27" value="" style="shape=partialRectangle;top=0;left=0;bottom=0;fillColor=none;align=left;verticalAlign=top;spacingLeft=4;spacingRight=4;overflow=hidden;rotatable=0;points=[];portConstraint=eastwest;part=1;fontSize=12;" parent="1j8pfAbaeB9nWyxGAaxb-26" vertex="1" connectable="0">
          <mxGeometry width="30" height="26" as="geometry" />
        </mxCell>
        <mxCell id="1j8pfAbaeB9nWyxGAaxb-28" value="Aliquote" style="shape=partialRectangle;top=0;left=0;right=0;bottom=0;align=left;verticalAlign=top;fillColor=none;spacingLeft=34;spacingRight=4;overflow=hidden;rotatable=0;points=[[0,0.5],[1,0.5]];portConstraint=eastwest;dropTarget=0;fontSize=12;" parent="1j8pfAbaeB9nWyxGAaxb-0" vertex="1">
          <mxGeometry y="238" width="180" height="26" as="geometry" />
        </mxCell>
        <mxCell id="1j8pfAbaeB9nWyxGAaxb-29" value="" style="shape=partialRectangle;top=0;left=0;bottom=0;fillColor=none;align=left;verticalAlign=top;spacingLeft=4;spacingRight=4;overflow=hidden;rotatable=0;points=[];portConstraint=eastwest;part=1;fontSize=12;" parent="1j8pfAbaeB9nWyxGAaxb-28" vertex="1" connectable="0">
          <mxGeometry width="30" height="26" as="geometry" />
        </mxCell>
        <mxCell id="1j8pfAbaeB9nWyxGAaxb-30" value="Dil" style="shape=partialRectangle;top=0;left=0;right=0;bottom=0;align=left;verticalAlign=top;fillColor=none;spacingLeft=34;spacingRight=4;overflow=hidden;rotatable=0;points=[[0,0.5],[1,0.5]];portConstraint=eastwest;dropTarget=0;fontSize=12;" parent="1j8pfAbaeB9nWyxGAaxb-0" vertex="1">
          <mxGeometry y="264" width="180" height="26" as="geometry" />
        </mxCell>
        <mxCell id="1j8pfAbaeB9nWyxGAaxb-31" value="" style="shape=partialRectangle;top=0;left=0;bottom=0;fillColor=none;align=left;verticalAlign=top;spacingLeft=4;spacingRight=4;overflow=hidden;rotatable=0;points=[];portConstraint=eastwest;part=1;fontSize=12;" parent="1j8pfAbaeB9nWyxGAaxb-30" vertex="1" connectable="0">
          <mxGeometry width="30" height="26" as="geometry" />
        </mxCell>
        <mxCell id="1j8pfAbaeB9nWyxGAaxb-32" value="PrevResult" style="shape=partialRectangle;top=0;left=0;right=0;bottom=0;align=left;verticalAlign=top;fillColor=none;spacingLeft=34;spacingRight=4;overflow=hidden;rotatable=0;points=[[0,0.5],[1,0.5]];portConstraint=eastwest;dropTarget=0;fontSize=12;" parent="1j8pfAbaeB9nWyxGAaxb-0" vertex="1">
          <mxGeometry y="290" width="180" height="26" as="geometry" />
        </mxCell>
        <mxCell id="1j8pfAbaeB9nWyxGAaxb-33" value="" style="shape=partialRectangle;top=0;left=0;bottom=0;fillColor=none;align=left;verticalAlign=top;spacingLeft=4;spacingRight=4;overflow=hidden;rotatable=0;points=[];portConstraint=eastwest;part=1;fontSize=12;" parent="1j8pfAbaeB9nWyxGAaxb-32" vertex="1" connectable="0">
          <mxGeometry width="30" height="26" as="geometry" />
        </mxCell>
        <mxCell id="1j8pfAbaeB9nWyxGAaxb-61" value="time" style="shape=partialRectangle;top=0;left=0;right=0;bottom=0;align=left;verticalAlign=top;fillColor=none;spacingLeft=34;spacingRight=4;overflow=hidden;rotatable=0;points=[[0,0.5],[1,0.5]];portConstraint=eastwest;dropTarget=0;fontSize=12;" parent="1j8pfAbaeB9nWyxGAaxb-0" vertex="1">
          <mxGeometry y="316" width="180" height="26" as="geometry" />
        </mxCell>
        <mxCell id="1j8pfAbaeB9nWyxGAaxb-62" value="" style="shape=partialRectangle;top=0;left=0;bottom=0;fillColor=none;align=left;verticalAlign=top;spacingLeft=4;spacingRight=4;overflow=hidden;rotatable=0;points=[];portConstraint=eastwest;part=1;fontSize=12;" parent="1j8pfAbaeB9nWyxGAaxb-61" vertex="1" connectable="0">
          <mxGeometry width="30" height="26" as="geometry" />
        </mxCell>
        <object label="interfacestate" id="1j8pfAbaeB9nWyxGAaxb-36">
          <mxCell style="swimlane;fontStyle=0;childLayout=stackLayout;horizontal=1;startSize=26;fillColor=#e0e0e0;horizontalStack=0;resizeParent=1;resizeParentMax=0;resizeLast=0;collapsible=1;marginBottom=0;swimlaneFillColor=#ffffff;align=center;fontSize=14;" parent="R3DRoGVKzv257i6CzAVX-1" vertex="1">
            <mxGeometry x="90" y="740" width="180" height="108" as="geometry" />
          </mxCell>
        </object>
        <mxCell id="1j8pfAbaeB9nWyxGAaxb-37" value="id" style="shape=partialRectangle;top=0;left=0;right=0;bottom=1;align=left;verticalAlign=middle;fillColor=none;spacingLeft=34;spacingRight=4;overflow=hidden;rotatable=0;points=[[0,0.5],[1,0.5]];portConstraint=eastwest;dropTarget=0;fontStyle=5;fontSize=12;" parent="1j8pfAbaeB9nWyxGAaxb-36" vertex="1">
          <mxGeometry y="26" width="180" height="30" as="geometry" />
        </mxCell>
        <mxCell id="1j8pfAbaeB9nWyxGAaxb-38" value="PK" style="shape=partialRectangle;top=0;left=0;bottom=0;fillColor=none;align=left;verticalAlign=middle;spacingLeft=4;spacingRight=4;overflow=hidden;rotatable=0;points=[];portConstraint=eastwest;part=1;fontSize=12;" parent="1j8pfAbaeB9nWyxGAaxb-37" vertex="1" connectable="0">
          <mxGeometry width="30" height="30" as="geometry" />
        </mxCell>
        <mxCell id="1j8pfAbaeB9nWyxGAaxb-39" value="interface" style="shape=partialRectangle;top=0;left=0;right=0;bottom=0;align=left;verticalAlign=top;fillColor=none;spacingLeft=34;spacingRight=4;overflow=hidden;rotatable=0;points=[[0,0.5],[1,0.5]];portConstraint=eastwest;dropTarget=0;fontSize=12;" parent="1j8pfAbaeB9nWyxGAaxb-36" vertex="1">
          <mxGeometry y="56" width="180" height="26" as="geometry" />
        </mxCell>
        <mxCell id="1j8pfAbaeB9nWyxGAaxb-40" value="" style="shape=partialRectangle;top=0;left=0;bottom=0;fillColor=none;align=left;verticalAlign=top;spacingLeft=4;spacingRight=4;overflow=hidden;rotatable=0;points=[];portConstraint=eastwest;part=1;fontSize=12;" parent="1j8pfAbaeB9nWyxGAaxb-39" vertex="1" connectable="0">
          <mxGeometry width="30" height="26" as="geometry" />
        </mxCell>
        <mxCell id="1j8pfAbaeB9nWyxGAaxb-41" value="state" style="shape=partialRectangle;top=0;left=0;right=0;bottom=0;align=left;verticalAlign=top;fillColor=none;spacingLeft=34;spacingRight=4;overflow=hidden;rotatable=0;points=[[0,0.5],[1,0.5]];portConstraint=eastwest;dropTarget=0;fontSize=12;" parent="1j8pfAbaeB9nWyxGAaxb-36" vertex="1">
          <mxGeometry y="82" width="180" height="26" as="geometry" />
        </mxCell>
        <mxCell id="1j8pfAbaeB9nWyxGAaxb-42" value="" style="shape=partialRectangle;top=0;left=0;bottom=0;fillColor=none;align=left;verticalAlign=top;spacingLeft=4;spacingRight=4;overflow=hidden;rotatable=0;points=[];portConstraint=eastwest;part=1;fontSize=12;" parent="1j8pfAbaeB9nWyxGAaxb-41" vertex="1" connectable="0">
          <mxGeometry width="30" height="26" as="geometry" />
        </mxCell>
        <mxCell id="C9yZFYH4_JPwOJMf6Hxi-0" value="temptbresult" style="swimlane;fontStyle=0;childLayout=stackLayout;horizontal=1;startSize=26;fillColor=#e0e0e0;horizontalStack=0;resizeParent=1;resizeParentMax=0;resizeLast=0;collapsible=1;marginBottom=0;swimlaneFillColor=#ffffff;align=center;fontSize=14;" parent="R3DRoGVKzv257i6CzAVX-1" vertex="1">
          <mxGeometry x="330" y="380" width="190" height="476" as="geometry" />
        </mxCell>
        <mxCell id="C9yZFYH4_JPwOJMf6Hxi-1" value="AccessionNo" style="shape=partialRectangle;top=0;left=0;right=0;bottom=1;align=left;verticalAlign=middle;fillColor=none;spacingLeft=34;spacingRight=4;overflow=hidden;rotatable=0;points=[[0,0.5],[1,0.5]];portConstraint=eastwest;dropTarget=0;fontStyle=5;fontSize=12;" parent="C9yZFYH4_JPwOJMf6Hxi-0" vertex="1">
          <mxGeometry y="26" width="190" height="30" as="geometry" />
        </mxCell>
        <mxCell id="C9yZFYH4_JPwOJMf6Hxi-2" value="PK" style="shape=partialRectangle;top=0;left=0;bottom=0;fillColor=none;align=left;verticalAlign=middle;spacingLeft=4;spacingRight=4;overflow=hidden;rotatable=0;points=[];portConstraint=eastwest;part=1;fontSize=12;" parent="C9yZFYH4_JPwOJMf6Hxi-1" vertex="1" connectable="0">
          <mxGeometry width="30" height="30" as="geometry" />
        </mxCell>
        <mxCell id="C9yZFYH4_JPwOJMf6Hxi-3" value="WorksheetNo" style="shape=partialRectangle;top=0;left=0;right=0;bottom=1;align=left;verticalAlign=middle;fillColor=none;spacingLeft=34;spacingRight=4;overflow=hidden;rotatable=0;points=[[0,0.5],[1,0.5]];portConstraint=eastwest;dropTarget=0;fontStyle=4;fontSize=12;" parent="C9yZFYH4_JPwOJMf6Hxi-0" vertex="1">
          <mxGeometry y="56" width="190" height="30" as="geometry" />
        </mxCell>
        <mxCell id="C9yZFYH4_JPwOJMf6Hxi-4" value="PK" style="shape=partialRectangle;top=0;left=0;bottom=0;fillColor=none;align=left;verticalAlign=middle;spacingLeft=4;spacingRight=4;overflow=hidden;rotatable=0;points=[];portConstraint=eastwest;part=1;fontSize=12;" parent="C9yZFYH4_JPwOJMf6Hxi-3" vertex="1" connectable="0">
          <mxGeometry width="30" height="30" as="geometry" />
        </mxCell>
        <mxCell id="C9yZFYH4_JPwOJMf6Hxi-7" value="AnalytePos" style="text;strokeColor=none;fillColor=none;spacingLeft=4;spacingRight=4;overflow=hidden;rotatable=0;points=[[0,0.5],[1,0.5]];portConstraint=eastwest;fontSize=12;fontStyle=1" parent="C9yZFYH4_JPwOJMf6Hxi-0" vertex="1">
          <mxGeometry y="86" width="190" height="26" as="geometry" />
        </mxCell>
        <mxCell id="C9yZFYH4_JPwOJMf6Hxi-8" value="Phase" style="text;strokeColor=none;fillColor=none;spacingLeft=4;spacingRight=4;overflow=hidden;rotatable=0;points=[[0,0.5],[1,0.5]];portConstraint=eastwest;fontSize=12;" parent="C9yZFYH4_JPwOJMf6Hxi-0" vertex="1">
          <mxGeometry y="112" width="190" height="26" as="geometry" />
        </mxCell>
        <mxCell id="C9yZFYH4_JPwOJMf6Hxi-9" value="GroupNo" style="text;strokeColor=none;fillColor=none;spacingLeft=4;spacingRight=4;overflow=hidden;rotatable=0;points=[[0,0.5],[1,0.5]];portConstraint=eastwest;fontSize=12;" parent="C9yZFYH4_JPwOJMf6Hxi-0" vertex="1">
          <mxGeometry y="138" width="190" height="26" as="geometry" />
        </mxCell>
        <mxCell id="C9yZFYH4_JPwOJMf6Hxi-10" value="Result" style="text;strokeColor=none;fillColor=none;spacingLeft=4;spacingRight=4;overflow=hidden;rotatable=0;points=[[0,0.5],[1,0.5]];portConstraint=eastwest;fontSize=12;" parent="C9yZFYH4_JPwOJMf6Hxi-0" vertex="1">
          <mxGeometry y="164" width="190" height="26" as="geometry" />
        </mxCell>
        <mxCell id="C9yZFYH4_JPwOJMf6Hxi-11" value="Previous Result" style="text;strokeColor=none;fillColor=none;spacingLeft=4;spacingRight=4;overflow=hidden;rotatable=0;points=[[0,0.5],[1,0.5]];portConstraint=eastwest;fontSize=12;" parent="C9yZFYH4_JPwOJMf6Hxi-0" vertex="1">
          <mxGeometry y="190" width="190" height="26" as="geometry" />
        </mxCell>
        <mxCell id="C9yZFYH4_JPwOJMf6Hxi-12" value="WorksheetNo" style="text;strokeColor=none;fillColor=none;spacingLeft=4;spacingRight=4;overflow=hidden;rotatable=0;points=[[0,0.5],[1,0.5]];portConstraint=eastwest;fontSize=12;" parent="C9yZFYH4_JPwOJMf6Hxi-0" vertex="1">
          <mxGeometry y="216" width="190" height="26" as="geometry" />
        </mxCell>
        <mxCell id="C9yZFYH4_JPwOJMf6Hxi-13" value="Phase" style="text;strokeColor=none;fillColor=none;spacingLeft=4;spacingRight=4;overflow=hidden;rotatable=0;points=[[0,0.5],[1,0.5]];portConstraint=eastwest;fontSize=12;" parent="C9yZFYH4_JPwOJMf6Hxi-0" vertex="1">
          <mxGeometry y="242" width="190" height="26" as="geometry" />
        </mxCell>
        <mxCell id="C9yZFYH4_JPwOJMf6Hxi-14" value="Status" style="text;strokeColor=none;fillColor=none;spacingLeft=4;spacingRight=4;overflow=hidden;rotatable=0;points=[[0,0.5],[1,0.5]];portConstraint=eastwest;fontSize=12;" parent="C9yZFYH4_JPwOJMf6Hxi-0" vertex="1">
          <mxGeometry y="268" width="190" height="26" as="geometry" />
        </mxCell>
        <mxCell id="C9yZFYH4_JPwOJMf6Hxi-15" value="CannedComment" style="text;strokeColor=none;fillColor=none;spacingLeft=4;spacingRight=4;overflow=hidden;rotatable=0;points=[[0,0.5],[1,0.5]];portConstraint=eastwest;fontSize=12;" parent="C9yZFYH4_JPwOJMf6Hxi-0" vertex="1">
          <mxGeometry y="294" width="190" height="26" as="geometry" />
        </mxCell>
        <mxCell id="C9yZFYH4_JPwOJMf6Hxi-16" value="TextComments" style="text;strokeColor=none;fillColor=none;spacingLeft=4;spacingRight=4;overflow=hidden;rotatable=0;points=[[0,0.5],[1,0.5]];portConstraint=eastwest;fontSize=12;" parent="C9yZFYH4_JPwOJMf6Hxi-0" vertex="1">
          <mxGeometry y="320" width="190" height="26" as="geometry" />
        </mxCell>
        <mxCell id="C9yZFYH4_JPwOJMf6Hxi-17" value="Aliquot" style="text;strokeColor=none;fillColor=none;spacingLeft=4;spacingRight=4;overflow=hidden;rotatable=0;points=[[0,0.5],[1,0.5]];portConstraint=eastwest;fontSize=12;" parent="C9yZFYH4_JPwOJMf6Hxi-0" vertex="1">
          <mxGeometry y="346" width="190" height="26" as="geometry" />
        </mxCell>
        <mxCell id="C9yZFYH4_JPwOJMf6Hxi-18" value="AliquotNo" style="text;strokeColor=none;fillColor=none;spacingLeft=4;spacingRight=4;overflow=hidden;rotatable=0;points=[[0,0.5],[1,0.5]];portConstraint=eastwest;fontSize=12;fontStyle=1" parent="C9yZFYH4_JPwOJMf6Hxi-0" vertex="1">
          <mxGeometry y="372" width="190" height="26" as="geometry" />
        </mxCell>
        <mxCell id="C9yZFYH4_JPwOJMf6Hxi-19" value="RackSequence" style="text;strokeColor=none;fillColor=none;spacingLeft=4;spacingRight=4;overflow=hidden;rotatable=0;points=[[0,0.5],[1,0.5]];portConstraint=eastwest;fontSize=12;" parent="C9yZFYH4_JPwOJMf6Hxi-0" vertex="1">
          <mxGeometry y="398" width="190" height="26" as="geometry" />
        </mxCell>
        <mxCell id="C9yZFYH4_JPwOJMf6Hxi-20" value="HostAanlyteCode" style="text;strokeColor=none;fillColor=none;spacingLeft=4;spacingRight=4;overflow=hidden;rotatable=0;points=[[0,0.5],[1,0.5]];portConstraint=eastwest;fontSize=12;" parent="C9yZFYH4_JPwOJMf6Hxi-0" vertex="1">
          <mxGeometry y="424" width="190" height="26" as="geometry" />
        </mxCell>
        <mxCell id="C9yZFYH4_JPwOJMf6Hxi-21" value="HostAnalyteMnemonic" style="text;strokeColor=none;fillColor=none;spacingLeft=4;spacingRight=4;overflow=hidden;rotatable=0;points=[[0,0.5],[1,0.5]];portConstraint=eastwest;fontSize=12;" parent="C9yZFYH4_JPwOJMf6Hxi-0" vertex="1">
          <mxGeometry y="450" width="190" height="26" as="geometry" />
        </mxCell>
        <mxCell id="C9yZFYH4_JPwOJMf6Hxi-23" style="edgeStyle=orthogonalEdgeStyle;rounded=0;orthogonalLoop=1;jettySize=auto;html=1;entryX=0;entryY=0.5;entryDx=0;entryDy=0;" parent="R3DRoGVKzv257i6CzAVX-1" source="1j8pfAbaeB9nWyxGAaxb-22" target="C9yZFYH4_JPwOJMf6Hxi-1" edge="1">
          <mxGeometry relative="1" as="geometry" />
        </mxCell>
        <object label="buildtemplate&#xa;" id="C9yZFYH4_JPwOJMf6Hxi-24">
          <mxCell style="swimlane;fontStyle=0;childLayout=stackLayout;horizontal=1;startSize=26;fillColor=#e0e0e0;horizontalStack=0;resizeParent=1;resizeParentMax=0;resizeLast=0;collapsible=1;marginBottom=0;swimlaneFillColor=#ffffff;align=center;fontSize=14;" parent="R3DRoGVKzv257i6CzAVX-1" vertex="1">
            <mxGeometry x="110" y="910" width="180" height="160" as="geometry" />
          </mxCell>
        </object>
        <mxCell id="C9yZFYH4_JPwOJMf6Hxi-25" value="id" style="shape=partialRectangle;top=0;left=0;right=0;bottom=1;align=left;verticalAlign=middle;fillColor=none;spacingLeft=34;spacingRight=4;overflow=hidden;rotatable=0;points=[[0,0.5],[1,0.5]];portConstraint=eastwest;dropTarget=0;fontStyle=5;fontSize=12;" parent="C9yZFYH4_JPwOJMf6Hxi-24" vertex="1">
          <mxGeometry y="26" width="180" height="30" as="geometry" />
        </mxCell>
        <mxCell id="C9yZFYH4_JPwOJMf6Hxi-26" value="PK" style="shape=partialRectangle;top=0;left=0;bottom=0;fillColor=none;align=left;verticalAlign=middle;spacingLeft=4;spacingRight=4;overflow=hidden;rotatable=0;points=[];portConstraint=eastwest;part=1;fontSize=12;" parent="C9yZFYH4_JPwOJMf6Hxi-25" vertex="1" connectable="0">
          <mxGeometry width="30" height="30" as="geometry" />
        </mxCell>
        <mxCell id="C9yZFYH4_JPwOJMf6Hxi-27" value="Interface" style="shape=partialRectangle;top=0;left=0;right=0;bottom=0;align=left;verticalAlign=top;fillColor=none;spacingLeft=34;spacingRight=4;overflow=hidden;rotatable=0;points=[[0,0.5],[1,0.5]];portConstraint=eastwest;dropTarget=0;fontSize=12;" parent="C9yZFYH4_JPwOJMf6Hxi-24" vertex="1">
          <mxGeometry y="56" width="180" height="26" as="geometry" />
        </mxCell>
        <mxCell id="C9yZFYH4_JPwOJMf6Hxi-28" value="" style="shape=partialRectangle;top=0;left=0;bottom=0;fillColor=none;align=left;verticalAlign=top;spacingLeft=4;spacingRight=4;overflow=hidden;rotatable=0;points=[];portConstraint=eastwest;part=1;fontSize=12;" parent="C9yZFYH4_JPwOJMf6Hxi-27" vertex="1" connectable="0">
          <mxGeometry width="30" height="26" as="geometry" />
        </mxCell>
        <mxCell id="C9yZFYH4_JPwOJMf6Hxi-29" value="Type" style="shape=partialRectangle;top=0;left=0;right=0;bottom=0;align=left;verticalAlign=top;fillColor=none;spacingLeft=34;spacingRight=4;overflow=hidden;rotatable=0;points=[[0,0.5],[1,0.5]];portConstraint=eastwest;dropTarget=0;fontSize=12;" parent="C9yZFYH4_JPwOJMf6Hxi-24" vertex="1">
          <mxGeometry y="82" width="180" height="26" as="geometry" />
        </mxCell>
        <mxCell id="C9yZFYH4_JPwOJMf6Hxi-30" value="" style="shape=partialRectangle;top=0;left=0;bottom=0;fillColor=none;align=left;verticalAlign=top;spacingLeft=4;spacingRight=4;overflow=hidden;rotatable=0;points=[];portConstraint=eastwest;part=1;fontSize=12;" parent="C9yZFYH4_JPwOJMf6Hxi-29" vertex="1" connectable="0">
          <mxGeometry width="30" height="26" as="geometry" />
        </mxCell>
        <mxCell id="C9yZFYH4_JPwOJMf6Hxi-31" value="Name" style="shape=partialRectangle;top=0;left=0;right=0;bottom=0;align=left;verticalAlign=top;fillColor=none;spacingLeft=34;spacingRight=4;overflow=hidden;rotatable=0;points=[[0,0.5],[1,0.5]];portConstraint=eastwest;dropTarget=0;fontSize=12;" parent="C9yZFYH4_JPwOJMf6Hxi-24" vertex="1">
          <mxGeometry y="108" width="180" height="26" as="geometry" />
        </mxCell>
        <mxCell id="C9yZFYH4_JPwOJMf6Hxi-32" value="" style="shape=partialRectangle;top=0;left=0;bottom=0;fillColor=none;align=left;verticalAlign=top;spacingLeft=4;spacingRight=4;overflow=hidden;rotatable=0;points=[];portConstraint=eastwest;part=1;fontSize=12;" parent="C9yZFYH4_JPwOJMf6Hxi-31" vertex="1" connectable="0">
          <mxGeometry width="30" height="26" as="geometry" />
        </mxCell>
        <mxCell id="C9yZFYH4_JPwOJMf6Hxi-33" value="Well" style="shape=partialRectangle;top=0;left=0;right=0;bottom=0;align=left;verticalAlign=top;fillColor=none;spacingLeft=34;spacingRight=4;overflow=hidden;rotatable=0;points=[[0,0.5],[1,0.5]];portConstraint=eastwest;dropTarget=0;fontSize=12;" parent="C9yZFYH4_JPwOJMf6Hxi-24" vertex="1">
          <mxGeometry y="134" width="180" height="26" as="geometry" />
        </mxCell>
        <mxCell id="C9yZFYH4_JPwOJMf6Hxi-34" value="" style="shape=partialRectangle;top=0;left=0;bottom=0;fillColor=none;align=left;verticalAlign=top;spacingLeft=4;spacingRight=4;overflow=hidden;rotatable=0;points=[];portConstraint=eastwest;part=1;fontSize=12;" parent="C9yZFYH4_JPwOJMf6Hxi-33" vertex="1" connectable="0">
          <mxGeometry width="30" height="26" as="geometry" />
        </mxCell>
        <object label="StdCtls" id="7ugmSULA3PjSGToRX3ZL-0">
          <mxCell style="swimlane;fontStyle=0;childLayout=stackLayout;horizontal=1;startSize=26;fillColor=#e0e0e0;horizontalStack=0;resizeParent=1;resizeParentMax=0;resizeLast=0;collapsible=1;marginBottom=0;swimlaneFillColor=#ffffff;align=center;fontSize=14;" parent="R3DRoGVKzv257i6CzAVX-1" vertex="1">
            <mxGeometry x="410" y="910" width="180" height="108" as="geometry" />
          </mxCell>
        </object>
        <mxCell id="7ugmSULA3PjSGToRX3ZL-1" value="id" style="shape=partialRectangle;top=0;left=0;right=0;bottom=1;align=left;verticalAlign=middle;fillColor=none;spacingLeft=34;spacingRight=4;overflow=hidden;rotatable=0;points=[[0,0.5],[1,0.5]];portConstraint=eastwest;dropTarget=0;fontStyle=5;fontSize=12;" parent="7ugmSULA3PjSGToRX3ZL-0" vertex="1">
          <mxGeometry y="26" width="180" height="30" as="geometry" />
        </mxCell>
        <mxCell id="7ugmSULA3PjSGToRX3ZL-2" value="PK" style="shape=partialRectangle;top=0;left=0;bottom=0;fillColor=none;align=left;verticalAlign=middle;spacingLeft=4;spacingRight=4;overflow=hidden;rotatable=0;points=[];portConstraint=eastwest;part=1;fontSize=12;" parent="7ugmSULA3PjSGToRX3ZL-1" vertex="1" connectable="0">
          <mxGeometry width="30" height="30" as="geometry" />
        </mxCell>
        <mxCell id="7ugmSULA3PjSGToRX3ZL-3" value="Name" style="shape=partialRectangle;top=0;left=0;right=0;bottom=0;align=left;verticalAlign=top;fillColor=none;spacingLeft=34;spacingRight=4;overflow=hidden;rotatable=0;points=[[0,0.5],[1,0.5]];portConstraint=eastwest;dropTarget=0;fontSize=12;" parent="7ugmSULA3PjSGToRX3ZL-0" vertex="1">
          <mxGeometry y="56" width="180" height="26" as="geometry" />
        </mxCell>
        <mxCell id="7ugmSULA3PjSGToRX3ZL-4" value="" style="shape=partialRectangle;top=0;left=0;bottom=0;fillColor=none;align=left;verticalAlign=top;spacingLeft=4;spacingRight=4;overflow=hidden;rotatable=0;points=[];portConstraint=eastwest;part=1;fontSize=12;" parent="7ugmSULA3PjSGToRX3ZL-3" vertex="1" connectable="0">
          <mxGeometry width="30" height="26" as="geometry" />
        </mxCell>
        <mxCell id="7ugmSULA3PjSGToRX3ZL-5" value="Type" style="shape=partialRectangle;top=0;left=0;right=0;bottom=0;align=left;verticalAlign=top;fillColor=none;spacingLeft=34;spacingRight=4;overflow=hidden;rotatable=0;points=[[0,0.5],[1,0.5]];portConstraint=eastwest;dropTarget=0;fontSize=12;" parent="7ugmSULA3PjSGToRX3ZL-0" vertex="1">
          <mxGeometry y="82" width="180" height="26" as="geometry" />
        </mxCell>
        <mxCell id="7ugmSULA3PjSGToRX3ZL-6" value="" style="shape=partialRectangle;top=0;left=0;bottom=0;fillColor=none;align=left;verticalAlign=top;spacingLeft=4;spacingRight=4;overflow=hidden;rotatable=0;points=[];portConstraint=eastwest;part=1;fontSize=12;" parent="7ugmSULA3PjSGToRX3ZL-5" vertex="1" connectable="0">
          <mxGeometry width="30" height="26" as="geometry" />
        </mxCell>
      </root>
    </mxGraphModel>
  </diagram>
</mxfile>
